<?xml version="1.0" standalone="no"?>
<!DOCTYPE svg PUBLIC "-//W3C//DTD SVG 20010904//EN"
 "http://www.w3.org/TR/2001/REC-SVG-20010904/DTD/svg10.dtd">
<svg version="1.0" xmlns="http://www.w3.org/2000/svg"
 width="132.000000pt" height="132.000000pt" viewBox="0 0 132.000000 132.000000"
 preserveAspectRatio="xMidYMid meet">
<metadata>
Created by potrace 1.11, written by Peter Selinger 2001-2013
</metadata>
<g transform="translate(0.000000,132.000000) scale(0.100000,-0.100000)"
fill="#000000" stroke="none">
<path d="M42 1124 c-22 -15 -22 -18 -22 -268 0 -228 2 -254 18 -269 37 -33 98
-22 108 21 28 132 83 241 153 306 l31 30 0 -166 c0 -146 2 -168 18 -189 21
-25 71 -31 95 -11 8 7 20 38 27 69 7 32 23 81 35 108 28 64 112 178 127 173 8
-3 12 -52 13 -159 1 -85 5 -161 9 -171 4 -9 21 -22 37 -28 24 -10 33 -10 54 4
13 9 28 24 33 33 5 10 9 125 8 257 -1 237 -1 238 -25 257 -13 10 -33 19 -46
19 -30 0 -134 -69 -195 -129 l-50 -50 0 68 c0 58 -3 71 -23 89 -13 12 -34 22
-48 22 -31 0 -133 -66 -191 -125 -25 -25 -47 -45 -49 -45 -2 0 -4 30 -5 66 0
57 -4 70 -23 85 -28 23 -59 24 -89 3z"/>
<path d="M871 1114 c-20 -25 -21 -39 -21 -264 0 -212 2 -240 18 -259 39 -49
128 -13 247 100 l51 48 0 -256 0 -256 29 -24 c33 -29 70 -25 97 10 16 20 18
58 17 450 l0 429 -24 24 c-50 50 -109 22 -119 -55 -9 -65 -74 -193 -130 -256
l-45 -50 -1 172 c0 164 -1 173 -22 193 -31 28 -72 26 -97 -6z"/>
</g>
</svg>
