<?xml version="1.0" encoding="UTF-8"?>
<svg width="16px" height="35px" viewBox="0 0 16 35" version="1.1" xmlns="http://www.w3.org/2000/svg" xmlns:xlink="http://www.w3.org/1999/xlink">
    <!-- Generator: Sketch 43.1 (39012) - http://www.bohemiancoding.com/sketch -->
    <title>icon-scroll</title>
    <desc>Created with Sketch.</desc>
    <defs></defs>
    <g id="1.-homepage" stroke="none" stroke-width="1" fill="none" fill-rule="evenodd">
        <g id="MPC_1a_home-desktop" transform="translate(-720.000000, -659.000000)" fill="#FFFFFF">
            <g id="search" transform="translate(0.000000, -21.000000)">
                <g id="icon-scroll" transform="translate(720.000000, 680.000000)">
                    <path d="M4.71186441,0 L11.2881356,0 C12.5838041,0 13.7627119,0.539371469 14.6158192,1.40580862 C15.4708098,2.27224576 16,3.46957392 16,4.78739995 L16,19.0157133 C16,20.3316266 15.4708098,21.5289548 14.6158192,22.3953919 C13.7627119,23.2637418 12.5838041,23.8012006 11.2881356,23.8012006 L4.71186441,23.8012006 C3.41619586,23.8012006 2.23728814,23.2637418 1.38418079,22.3953919 C0.529190207,21.5289548 0,20.3316266 0,19.0157133 L0,4.78739995 C0,3.46957392 0.529190207,2.27224576 1.38418079,1.40580862 C2.23728814,0.539371469 3.41619586,0 4.71186441,0 Z M11.2881356,1.06344162 L4.71186441,1.06344162 C3.70433145,1.06344162 2.78907721,1.48231521 2.12429379,2.15748588 C1.45951036,2.83265654 1.04708098,3.76412429 1.04708098,4.78739995 L1.04708098,19.0157133 C1.04708098,20.0389889 1.45951036,20.968544 2.12429379,21.6437147 C2.78907721,22.3188854 3.70433145,22.7377589 4.71186441,22.7377589 L11.2881356,22.7377589 C12.2956685,22.7377589 13.2109228,22.3188854 13.8757062,21.6437147 C14.5404896,20.968544 14.952919,20.0389889 14.952919,19.0157133 L14.952919,4.78739995 C14.952919,3.76412429 14.5404896,2.83265654 13.8757062,2.15748588 C13.2109228,1.48231521 12.2956685,1.06344162 11.2881356,1.06344162 Z" id="Shape" fill-rule="nonzero"></path>
                    <polygon id="Shape" fill-rule="nonzero" points="8.52354049 4.83712924 8.52354049 9.41604873 7.47645951 9.41604873 7.47645951 4.83712924"></polygon>
                    <polygon id="Shape" points="7.48022599 26.5573505 8.51977401 26.5573505 8.51977401 32.6606638 7.48022599 32.6606638"></polygon>
                    <polygon id="Shape" points="7.9566855 34.6039313 5.36346516 30.7326977 6.13370998 30.0517891 7.56685499 32.2341396 8.34463277 32.2073623 9.78154426 30.0938677 10.6384181 30.7116584"></polygon>
                </g>
            </g>
        </g>
    </g>
</svg>