<svg width='200' height='200' fill="#000000" xmlns="http://www.w3.org/2000/svg" xmlns:xlink="http://www.w3.org/1999/xlink" xml:space="preserve" version="1.1" style="shape-rendering:geometricPrecision;text-rendering:geometricPrecision;image-rendering:optimizeQuality;" viewBox="0 0 18062 18062" x="0px" y="0px" fill-rule="evenodd" clip-rule="evenodd"><defs><style type="text/css">
   
    .fil1 {fill:#000000}
    .fil0 {fill:black;fill-rule:nonzero}
   
  </style></defs><g><g><path class="fil0" d="M7285 -15l3492 0c688,0 1314,282 1767,735 454,453 735,1079 735,1768l0 7439c0,688 -281,1314 -735,1767 -453,454 -1079,735 -1767,735l-3492 0c-688,0 -1314,-281 -1767,-735 -454,-453 -735,-1079 -735,-1767l0 -7439c0,-689 281,-1315 735,-1768 453,-453 1079,-735 1767,-735zm3492 556l-3492 0c-535,0 -1021,219 -1374,572 -353,353 -572,840 -572,1375l0 7439c0,535 219,1021 572,1374 353,353 839,572 1374,572l3492 0c535,0 1021,-219 1374,-572 353,-353 572,-839 572,-1374l0 -7439c0,-535 -219,-1022 -572,-1375 -353,-353 -839,-572 -1374,-572z"/><polygon class="fil0" points="9309,2514 9309,4908 8753,4908 8753,2514 "/><polygon class="fil1" points="8755,13870 9307,13870 9307,17061 8755,17061 "/><polygon class="fil1" points="9008,18077 7631,16053 8040,15697 8801,16838 9214,16824 9977,15719 10432,16042 "/></g></g></svg>