<?xml version="1.0" encoding="UTF-8"?>
<svg width="36px" height="23px" viewBox="0 0 36 23" version="1.1" xmlns="http://www.w3.org/2000/svg" xmlns:xlink="http://www.w3.org/1999/xlink">
    <!-- Generator: Sketch 43.1 (39012) - http://www.bohemiancoding.com/sketch -->
    <title>Icon / Bed (white)</title>
    <desc>Created with Sketch.</desc>
    <defs>
        <polygon id="path-1" points="0 0.90988 0 22.76103 35.9996516 22.76103 35.9996516 0.90988 3.14768373e-20 0.90988"></polygon>
    </defs>
    <g id="1.-homepage" stroke="none" stroke-width="1" fill="none" fill-rule="evenodd">
        <g id="MPC_1a_home-desktop" transform="translate(-1138.000000, -897.000000)">
            <g id="featured" transform="translate(0.000000, 714.000000)">
                <g id="Card-/-Property" transform="translate(505.000000, 70.000000)">
                    <g id="details" transform="translate(606.000000, 0.000000)">
                        <g id="icons" transform="translate(27.000000, 110.000000)">
                            <g id="Icon-/-Bed" transform="translate(0.000000, 3.000000)">
                                <mask id="mask-2" fill="white">
                                    <use xlink:href="#path-1"></use>
                                </mask>
                                <g id="Clip-11"></g>
                                <path d="M33.441329,10.56758 L33.0859742,10.56758 L33.0859742,4.66348 C33.0859742,2.59348 31.4125548,0.90988 29.357071,0.90988 L6.64223226,0.90988 C4.5855871,0.90988 2.91216774,2.59348 2.91216774,4.66348 L2.91216774,10.56758 L2.5568129,10.56758 C1.14700645,10.56758 -0.000348387097,11.72333 -0.000348387097,13.14243 L-0.000348387097,16.95813 C-0.000348387097,18.37723 1.14700645,19.53298 2.5568129,19.53298 L5.72016774,19.53298 L5.72016774,21.95488 C5.72016774,22.39993 6.07900645,22.76103 6.52029677,22.76103 C6.96274839,22.76103 7.32042581,22.39993 7.32042581,21.95488 L7.32042581,19.53298 L28.6788774,19.53298 L28.6788774,21.95488 C28.6788774,22.39993 29.0377161,22.76103 29.4778452,22.76103 C29.9202968,22.76103 30.2791355,22.39993 30.2791355,21.95488 L30.2791355,19.53298 L33.441329,19.53298 C34.8522968,19.53298 35.9996516,18.37723 35.9996516,16.95813 L35.9996516,13.14243 C35.9996516,11.72333 34.8522968,10.56758 33.441329,10.56758 L33.441329,10.56758 Z M4.51242581,4.66348 C4.51242581,3.48128 5.46816774,2.51988 6.64223226,2.51988 L29.357071,2.51988 C30.5311355,2.51988 31.4868774,3.48128 31.4868774,4.66348 L31.4868774,10.56758 L30.4614581,10.56758 L30.4614581,8.94953 C30.4614581,7.92028 29.6276516,7.08078 28.6033935,7.08078 L20.4023613,7.08078 C19.3792645,7.08078 18.5442968,7.92028 18.5442968,8.94953 L18.5442968,10.56758 L17.4538452,10.56758 L17.4538452,8.94953 C17.4538452,7.92028 16.6212,7.08078 15.5957806,7.08078 L7.39474839,7.08078 C6.37049032,7.08078 5.53784516,7.92028 5.53784516,8.94953 L5.53784516,10.56758 L4.51242581,10.56758 L4.51242581,4.66348 Z M20.1445548,10.56758 L20.1445548,8.94953 C20.1445548,8.81038 20.2630065,8.69193 20.4023613,8.69193 L28.6033935,8.69193 C28.7427484,8.69193 28.8612,8.81038 28.8612,8.94953 L28.8612,10.56758 L20.1445548,10.56758 Z M7.13810323,10.56758 L7.13810323,8.94953 C7.13810323,8.81038 7.25655484,8.69193 7.39474839,8.69193 L15.5957806,8.69193 C15.7362968,8.69193 15.8535871,8.81038 15.8535871,8.94953 L15.8535871,10.56758 L7.13810323,10.56758 Z M34.3993935,16.95813 C34.3993935,17.48943 33.9708774,17.92183 33.441329,17.92183 L2.5568129,17.92183 C2.0295871,17.92183 1.59990968,17.48943 1.59990968,16.95813 L1.59990968,13.14243 C1.59990968,12.60998 2.0295871,12.17758 2.5568129,12.17758 L33.441329,12.17758 C33.9708774,12.17758 34.3993935,12.60998 34.3993935,13.14243 L34.3993935,16.95813 Z" id="Fill-10" fill="#221F20" fill-rule="evenodd" mask="url(#mask-2)"></path>
                            </g>
                        </g>
                    </g>
                </g>
            </g>
        </g>
    </g>
</svg>