<svg width='200' height='200' fill="#000000" xmlns:dc="http://purl.org/dc/elements/1.1/" xmlns:cc="http://creativecommons.org/ns#" xmlns:rdf="http://www.w3.org/1999/02/22-rdf-syntax-ns#" xmlns:svg="http://www.w3.org/2000/svg" xmlns="http://www.w3.org/2000/svg" xmlns:sodipodi="http://sodipodi.sourceforge.net/DTD/sodipodi-0.dtd" xmlns:inkscape="http://www.inkscape.org/namespaces/inkscape" viewBox="0 0 32 32.000001" version="1.1" x="0px" y="0px"><g transform="translate(0,-1020.3622)"><path style="color:#000000;font-style:normal;font-variant:normal;font-weight:normal;font-stretch:normal;font-size:medium;line-height:normal;font-family:sans-serif;text-indent:0;text-align:start;text-decoration:none;text-decoration-line:none;text-decoration-style:solid;text-decoration-color:#000000;letter-spacing:normal;word-spacing:normal;text-transform:none;direction:ltr;block-progression:tb;writing-mode:lr-tb;baseline-shift:baseline;text-anchor:start;white-space:normal;clip-rule:nonzero;display:inline;overflow:visible;visibility:visible;opacity:1;isolation:auto;mix-blend-mode:normal;color-interpolation:sRGB;color-interpolation-filters:linearRGB;solid-color:#000000;solid-opacity:1;fill:#000000;fill-opacity:1;fill-rule:nonzero;stroke:none;stroke-width:1.07455051;stroke-linecap:butt;stroke-linejoin:round;stroke-miterlimit:4;stroke-dasharray:none;stroke-dashoffset:0;stroke-opacity:1;color-rendering:auto;image-rendering:auto;shape-rendering:auto;text-rendering:auto;enable-background:accumulate" d="M 14.148438 2.0058594 C 14.086224 1.9937344 14.009296 1.9907656 13.902344 2.0097656 L 13.902344 2.0136719 C 13.68866 2.0516719 13.61987 2.1299656 13.537109 2.1972656 C 13.454349 2.2642656 13.37838 2.3384219 13.300781 2.4199219 C 13.145584 2.5830219 12.983459 2.7778031 12.822266 2.9707031 C 12.661073 3.1636031 12.501788 3.3537875 12.376953 3.4921875 C 12.324483 3.5501875 12.284103 3.5902469 12.25 3.6230469 C 12.20334 3.6230469 12.148094 3.6115156 12.072266 3.6035156 C 11.888925 3.5785156 11.646596 3.5355875 11.400391 3.4921875 C 11.154185 3.4491875 10.904658 3.4051594 10.681641 3.3808594 C 10.570132 3.3688594 10.466046 3.3612813 10.359375 3.3632812 C 10.252704 3.3632812 10.147899 3.3519375 9.9609375 3.4609375 C 9.7738853 3.5700375 9.7364391 3.6663125 9.6816406 3.7578125 C 9.6268426 3.8498125 9.5823466 3.943475 9.5371094 4.046875 C 9.4466354 4.253575 9.3575566 4.4934687 9.2714844 4.7304688 C 9.1854124 4.9674688 9.1017159 5.2017 9.03125 5.375 C 9.001472 5.448 8.9760981 5.5020219 8.9550781 5.5449219 C 8.9100901 5.5579219 8.8545802 5.5728437 8.7792969 5.5898438 C 8.5984541 5.6298437 8.3574619 5.6728969 8.1113281 5.7167969 C 7.8651943 5.7607969 7.6143718 5.8067281 7.3964844 5.8613281 C 7.2875407 5.8883281 7.1873403 5.9160781 7.0878906 5.9550781 C 6.9884406 5.9940781 6.8857604 6.0160406 6.7480469 6.1816406 C 6.610198 6.3474406 6.6083373 6.4518406 6.5878906 6.5566406 C 6.5674436 6.6613406 6.5563381 6.7642531 6.5488281 6.8769531 C 6.5338091 7.1023531 6.5338331 7.3587281 6.5332031 7.6113281 C 6.5325732 7.8638281 6.5329152 8.1134812 6.5253906 8.3007812 C 6.5222006 8.3807812 6.5150366 8.4386281 6.5097656 8.4863281 C 6.4717736 8.5143281 6.4259256 8.5493969 6.359375 8.5917969 C 6.2027331 8.6919969 5.9878214 8.8164594 5.7714844 8.9433594 C 5.5551474 9.0702594 5.3366571 9.1999719 5.1503906 9.3261719 C 5.0572576 9.3891719 4.972601 9.4508844 4.8925781 9.5214844 C 4.8125551 9.5924844 4.7250981 9.6477094 4.6523438 9.8496094 C 4.5796218 10.051409 4.6106961 10.150359 4.6269531 10.255859 C 4.6432101 10.361259 4.6700549 10.461912 4.7011719 10.570312 C 4.7634049 10.787313 4.8486988 11.028325 4.9335938 11.265625 C 5.0184888 11.502825 5.1018779 11.737616 5.1582031 11.916016 C 5.1822231 11.992016 5.1978284 12.049203 5.2089844 12.095703 C 5.1827994 12.135703 5.1482914 12.1867 5.0996094 12.25 C 4.986349 12.3983 4.828066 12.58735 4.6679688 12.78125 C 4.5078714 12.97515 4.3468307 13.172769 4.2148438 13.355469 C 4.1488498 13.446469 4.0901031 13.533253 4.0390625 13.626953 C 3.9880215 13.720953 3.9238281 13.803478 3.9238281 14.017578 C 3.9238281 14.231678 3.9880221 14.314503 4.0390625 14.408203 C 4.0901025 14.502203 4.148851 14.588387 4.2148438 14.679688 C 4.3468291 14.862388 4.5078736 15.060006 4.6679688 15.253906 C 4.8280639 15.447906 4.9863514 15.636856 5.0996094 15.785156 C 5.1482904 15.849156 5.1827994 15.899453 5.2089844 15.939453 C 5.1978264 15.986453 5.1822241 16.043041 5.1582031 16.119141 C 5.1018761 16.297541 5.0184883 16.532231 4.9335938 16.769531 C 4.8486987 17.006731 4.7634035 17.245991 4.7011719 17.462891 C 4.6700559 17.571391 4.6432091 17.673897 4.6269531 17.779297 C 4.6106971 17.884797 4.5796158 17.983747 4.6523438 18.185547 C 4.7250967 18.387447 4.812557 18.443072 4.8925781 18.513672 C 4.9725991 18.584672 5.0572569 18.645884 5.1503906 18.708984 C 5.3366581 18.835184 5.5551412 18.964897 5.7714844 19.091797 C 5.9878276 19.218797 6.2027151 19.341306 6.359375 19.441406 C 6.425592 19.483406 6.4717672 19.518375 6.5097656 19.546875 C 6.5151056 19.594875 6.5221636 19.654075 6.5253906 19.734375 C 6.5329206 19.921775 6.5325731 20.171228 6.5332031 20.423828 C 6.5338312 20.676328 6.5338108 20.93075 6.5488281 21.15625 C 6.5563381 21.26895 6.5674446 21.373716 6.5878906 21.478516 C 6.6083356 21.583216 6.6102816 21.687616 6.7480469 21.853516 C 6.8857962 22.019316 6.9884531 22.041278 7.0878906 22.080078 C 7.1873286 22.119078 7.2875475 22.148781 7.3964844 22.175781 C 7.614358 22.229781 7.8652025 22.275913 8.1113281 22.320312 C 8.3574538 22.364313 8.5984678 22.407366 8.7792969 22.447266 C 8.8545749 22.464266 8.9100997 22.479187 8.9550781 22.492188 C 8.9760941 22.535187 9.001472 22.589209 9.03125 22.662109 C 9.0765165 22.773438 9.1322364 22.929981 9.1855469 23.076172 L 6.5449219 27.574219 A 0.53732898 0.53732898 0 0 0 7.1484375 28.365234 L 9.5644531 27.716797 L 10.212891 30.134766 A 0.53732898 0.53732898 0 0 0 11.195312 30.263672 L 13.6875 25.949219 C 13.740027 25.978974 13.803467 26.005823 13.902344 26.023438 C 14.1163 26.061438 14.207683 26.011563 14.308594 25.976562 C 14.409504 25.941562 14.504837 25.899609 14.605469 25.849609 C 14.806732 25.749609 15.0274 25.623647 15.244141 25.498047 C 15.460881 25.372347 15.673953 25.246956 15.837891 25.160156 C 15.906581 25.124156 15.957032 25.099078 16 25.080078 C 16.04297 25.099078 16.09389 25.124156 16.162109 25.160156 C 16.326244 25.247156 16.538888 25.372347 16.755859 25.498047 C 16.972831 25.623647 17.193129 25.749909 17.394531 25.849609 C 17.495232 25.899609 17.590499 25.941563 17.691406 25.976562 C 17.792314 26.011563 17.883705 26.061438 18.097656 26.023438 C 18.195644 26.006012 18.258177 25.978646 18.310547 25.949219 L 20.800781 30.263672 A 0.53693734 0.53693734 0 0 0 21.783203 30.134766 L 22.431641 27.71875 L 24.845703 28.367188 A 0.53693734 0.53693734 0 0 0 25.447266 27.576172 L 22.8125 23.083984 C 22.86687 22.934792 22.922664 22.775455 22.96875 22.662109 C 22.99853 22.589109 23.023912 22.534988 23.044922 22.492188 C 23.089902 22.479188 23.145426 22.464266 23.220703 22.447266 C 23.40153 22.407266 23.642546 22.365212 23.888672 22.320312 C 24.134797 22.276312 24.385641 22.230281 24.603516 22.175781 C 24.712453 22.148781 24.812672 22.119078 24.912109 22.080078 C 25.011549 22.041078 25.114204 22.019016 25.251953 21.853516 C 25.389711 21.687616 25.391665 21.583216 25.412109 21.478516 C 25.432549 21.373716 25.443662 21.26895 25.451172 21.15625 C 25.466192 20.93075 25.466157 20.676328 25.466797 20.423828 C 25.467427 20.171228 25.467094 19.921775 25.474609 19.734375 C 25.477809 19.654375 25.484894 19.594675 25.490234 19.546875 C 25.528194 19.518875 25.574474 19.483906 25.640625 19.441406 C 25.797116 19.341306 26.010454 19.218797 26.226562 19.091797 C 26.442673 18.964897 26.661569 18.835284 26.847656 18.708984 C 26.940696 18.645984 27.025519 18.584372 27.105469 18.513672 C 27.185419 18.442672 27.273032 18.387247 27.345703 18.185547 C 27.418423 17.983747 27.387354 17.884797 27.371094 17.779297 C 27.354834 17.673897 27.327995 17.571391 27.296875 17.462891 C 27.234645 17.245991 27.149349 17.006731 27.064453 16.769531 C 26.979553 16.532231 26.89617 16.297541 26.839844 16.119141 C 26.815824 16.043141 26.800213 15.986053 26.789062 15.939453 C 26.815272 15.899453 26.849691 15.848456 26.898438 15.785156 C 27.011851 15.636856 27.169749 15.447906 27.330078 15.253906 C 27.490407 15.060006 27.652975 14.862388 27.785156 14.679688 C 27.851246 14.588688 27.909812 14.501903 27.960938 14.408203 C 28.012058 14.314203 28.076172 14.231878 28.076172 14.017578 C 28.076172 13.803278 28.012062 13.720653 27.960938 13.626953 C 27.909807 13.532953 27.851247 13.446769 27.785156 13.355469 C 27.652975 13.172769 27.490406 12.97515 27.330078 12.78125 C 27.16975 12.58735 27.011852 12.396347 26.898438 12.248047 C 26.849747 12.184047 26.815279 12.135703 26.789062 12.095703 C 26.800223 12.048703 26.815824 11.992116 26.839844 11.916016 C 26.896174 11.737616 26.979557 11.502825 27.064453 11.265625 C 27.149353 11.028325 27.234643 10.787313 27.296875 10.570312 C 27.327995 10.461912 27.354834 10.361259 27.371094 10.255859 C 27.387354 10.150359 27.418433 10.051409 27.345703 9.8496094 C 27.273033 9.6479094 27.185419 9.5921844 27.105469 9.5214844 C 27.025519 9.4504844 26.940699 9.3892719 26.847656 9.3261719 C 26.661571 9.1999719 26.44267 9.0702594 26.226562 8.9433594 C 26.010455 8.8163594 25.797109 8.6919969 25.640625 8.5917969 C 25.574145 8.5487969 25.528197 8.5147281 25.490234 8.4863281 C 25.484934 8.4383281 25.477809 8.3802813 25.474609 8.3007812 C 25.467109 8.1134812 25.467397 7.8638281 25.466797 7.6113281 C 25.466163 7.3587281 25.466188 7.1023531 25.451172 6.8769531 C 25.443672 6.7642531 25.432539 6.6613406 25.412109 6.5566406 C 25.391679 6.4518406 25.389749 6.3474406 25.251953 6.1816406 C 25.114234 6.0157406 25.011561 5.9939781 24.912109 5.9550781 C 24.812659 5.9160781 24.71246 5.8883281 24.603516 5.8613281 C 24.385627 5.8073281 24.134801 5.7611969 23.888672 5.7167969 C 23.642542 5.6727969 23.401531 5.6297437 23.220703 5.5898438 C 23.145423 5.5728437 23.089898 5.5579219 23.044922 5.5449219 C 23.023902 5.5019219 22.99853 5.448 22.96875 5.375 C 22.89828 5.2017 22.814588 4.9674688 22.728516 4.7304688 C 22.642446 4.4934687 22.553367 4.253575 22.462891 4.046875 C 22.417651 3.943475 22.373171 3.8494125 22.318359 3.7578125 C 22.263739 3.6668125 22.22454 3.5695375 22.039062 3.4609375 C 21.85211 3.3517375 21.747313 3.3652812 21.640625 3.3632812 C 21.533937 3.3632812 21.429875 3.3728594 21.318359 3.3808594 C 21.095328 3.4048594 20.84582 3.4488875 20.599609 3.4921875 C 20.353399 3.5351875 20.111078 3.5791156 19.927734 3.6035156 C 19.851904 3.6135156 19.796659 3.6190469 19.75 3.6230469 C 19.71589 3.5900469 19.67553 3.5499875 19.623047 3.4921875 C 19.498203 3.3537875 19.338934 3.1636031 19.177734 2.9707031 C 19.016535 2.7778031 18.852487 2.5810688 18.697266 2.4179688 C 18.619656 2.3359688 18.545695 2.2645656 18.462891 2.1972656 C 18.380081 2.1302656 18.311601 2.0497188 18.097656 2.0117188 C 17.883654 1.9737187 17.792333 2.0216406 17.691406 2.0566406 C 17.590479 2.0916406 17.495238 2.1356469 17.394531 2.1855469 C 17.193117 2.2855469 16.972834 2.4115094 16.755859 2.5371094 C 16.538885 2.6628094 16.326245 2.7882 16.162109 2.875 C 16.093939 2.911 16.042966 2.9321719 16 2.9511719 C 15.95704 2.9321719 15.90653 2.911 15.837891 2.875 C 15.673954 2.788 15.460878 2.6628094 15.244141 2.5371094 C 15.027403 2.4115094 14.806719 2.2853469 14.605469 2.1855469 C 14.504843 2.1355469 14.409484 2.0915406 14.308594 2.0566406 C 14.258148 2.0391406 14.210651 2.0179844 14.148438 2.0058594 z M 14.085938 3.0527344 C 14.113157 3.0647344 14.128959 3.0679844 14.162109 3.0839844 C 14.319089 3.1619844 14.52848 3.2803969 14.742188 3.4042969 C 14.955894 3.5281969 15.173748 3.6562656 15.369141 3.7597656 C 15.466841 3.8117656 15.558097 3.8586844 15.650391 3.8964844 C 15.742681 3.9344844 15.816593 3.9785156 16 3.9785156 C 16.183417 3.9785156 16.255339 3.9344844 16.347656 3.8964844 C 16.439976 3.8584844 16.531132 3.8115656 16.628906 3.7597656 C 16.824454 3.6563656 17.043873 3.5281969 17.257812 3.4042969 C 17.471753 3.2803969 17.680724 3.1617844 17.837891 3.0839844 C 17.871381 3.0669844 17.886632 3.0647344 17.914062 3.0527344 C 17.935592 3.0737344 17.948959 3.082375 17.974609 3.109375 C 18.095998 3.236875 18.253144 3.4230812 18.412109 3.6132812 C 18.571075 3.8035812 18.732358 3.9994625 18.880859 4.1640625 C 18.955109 4.2460625 19.024025 4.3192187 19.097656 4.3867188 C 19.171286 4.4547187 19.22477 4.5207844 19.396484 4.5839844 C 19.568253 4.6469844 19.652217 4.6309531 19.751953 4.6269531 C 19.851693 4.6269531 19.953131 4.6126563 20.0625 4.5976562 C 20.281238 4.5676563 20.530702 4.5226687 20.773438 4.4804688 C 21.016172 4.4374688 21.254021 4.3975062 21.427734 4.3789062 C 21.464604 4.3789062 21.480006 4.3791406 21.509766 4.3691406 C 21.523426 4.3971406 21.531195 4.4112656 21.546875 4.4472656 C 21.617805 4.6093656 21.704169 4.8384656 21.789062 5.0722656 C 21.873953 5.3060656 21.959274 5.5460531 22.042969 5.7519531 C 22.084819 5.8548531 22.125679 5.9484094 22.171875 6.0371094 C 22.218075 6.1261094 22.245665 6.2062188 22.384766 6.3242188 C 22.52401 6.4422187 22.608059 6.4556281 22.703125 6.4863281 C 22.798195 6.5173281 22.896033 6.5424063 23.003906 6.5664062 C 23.219653 6.6144063 23.468271 6.6573719 23.710938 6.7011719 C 23.953602 6.7451719 24.191568 6.7881781 24.361328 6.8300781 C 24.398898 6.8400781 24.413859 6.8474687 24.443359 6.8554688 C 24.446759 6.8864687 24.450425 6.9033594 24.453125 6.9433594 C 24.464905 7.1203594 24.466177 7.3641813 24.466797 7.6132812 C 24.467423 7.8623812 24.467587 8.1174438 24.476562 8.3398438 C 24.481063 8.4510438 24.48663 8.5531437 24.5 8.6523438 C 24.51337 8.7513437 24.5133 8.8364406 24.603516 8.9941406 C 24.693526 9.1516406 24.767042 9.1942594 24.845703 9.2558594 C 24.924363 9.3178594 25.00837 9.3758469 25.101562 9.4355469 C 25.287948 9.5548469 25.507613 9.6814406 25.720703 9.8066406 C 25.933793 9.9318406 26.14177 10.055697 26.287109 10.154297 C 26.319809 10.176297 26.332322 10.188031 26.357422 10.207031 C 26.349922 10.238031 26.347138 10.255922 26.335938 10.294922 C 26.287138 10.465022 26.20678 10.695687 26.123047 10.929688 C 26.039317 11.163787 25.953625 11.401381 25.886719 11.613281 C 25.853269 11.719281 25.823764 11.818316 25.802734 11.916016 C 25.781704 12.014016 25.752113 12.093284 25.783203 12.271484 C 25.814343 12.449884 25.868863 12.514809 25.921875 12.599609 C 25.974885 12.684609 26.036087 12.769222 26.103516 12.857422 C 26.238372 13.033722 26.400475 13.226769 26.558594 13.417969 C 26.716713 13.609269 26.8711 13.798406 26.974609 13.941406 C 26.998769 13.974406 27.007651 13.990578 27.025391 14.017578 C 27.007651 14.044578 26.998769 14.06075 26.974609 14.09375 C 26.871097 14.23685 26.716715 14.423934 26.558594 14.615234 C 26.400473 14.806434 26.238371 15.001334 26.103516 15.177734 C 26.036086 15.265734 25.974882 15.346841 25.921875 15.431641 C 25.868865 15.516641 25.814333 15.585272 25.783203 15.763672 C 25.752103 15.941872 25.781704 16.021341 25.802734 16.119141 C 25.823764 16.217141 25.853269 16.313922 25.886719 16.419922 C 25.953629 16.631822 26.039314 16.871469 26.123047 17.105469 C 26.206777 17.339469 26.287137 17.570134 26.335938 17.740234 C 26.347137 17.779234 26.349942 17.797125 26.357422 17.828125 C 26.332312 17.847125 26.319809 17.857859 26.287109 17.880859 C 26.141771 17.979859 25.933789 18.103316 25.720703 18.228516 C 25.507617 18.353616 25.28794 18.480409 25.101562 18.599609 C 25.008373 18.659609 24.924357 18.715744 24.845703 18.777344 C 24.767053 18.839344 24.693547 18.881562 24.603516 19.039062 C 24.513426 19.196762 24.513356 19.279706 24.5 19.378906 C 24.48664 19.477906 24.481033 19.582259 24.476562 19.693359 C 24.467662 19.915759 24.467497 20.168769 24.466797 20.417969 C 24.466176 20.667069 24.464895 20.910891 24.453125 21.087891 C 24.450425 21.127891 24.446859 21.145734 24.443359 21.177734 C 24.413929 21.187734 24.398768 21.191172 24.361328 21.201172 C 24.191554 21.243172 23.953606 21.288231 23.710938 21.332031 C 23.468267 21.376031 23.219653 21.418997 23.003906 21.466797 C 22.896033 21.490797 22.798189 21.513922 22.703125 21.544922 C 22.608065 21.575922 22.524001 21.590884 22.384766 21.708984 C 22.245576 21.826884 22.218076 21.907394 22.171875 21.996094 C 22.125675 22.085094 22.084815 22.17835 22.042969 22.28125 C 21.959269 22.48715 21.873958 22.727138 21.789062 22.960938 C 21.704172 23.194737 21.617803 23.421884 21.546875 23.583984 C 21.530875 23.619984 21.521692 23.636062 21.507812 23.664062 C 21.478552 23.664062 21.463734 23.664297 21.427734 23.654297 C 21.254008 23.635297 21.016178 23.595334 20.773438 23.552734 C 20.530697 23.509734 20.28124 23.464747 20.0625 23.435547 C 19.95313 23.420547 19.85169 23.408297 19.751953 23.404297 C 19.652213 23.404297 19.568253 23.386219 19.396484 23.449219 C 19.224687 23.512219 19.171301 23.577031 19.097656 23.644531 C 19.024016 23.712531 18.955115 23.786841 18.880859 23.869141 C 18.732349 24.033741 18.571081 24.229722 18.412109 24.419922 C 18.253137 24.610222 18.096023 24.794275 17.974609 24.921875 C 17.948719 24.948875 17.935752 24.959469 17.914062 24.980469 C 17.886723 24.968469 17.871221 24.963266 17.837891 24.947266 C 17.680711 24.869266 17.471755 24.7489 17.257812 24.625 C 17.043871 24.5011 16.824455 24.373031 16.628906 24.269531 C 16.531136 24.217531 16.439973 24.172466 16.347656 24.134766 C 16.255336 24.096766 16.183403 24.052734 16 24.052734 C 15.816579 24.052734 15.742685 24.096766 15.650391 24.134766 C 15.558091 24.172766 15.466837 24.219784 15.369141 24.271484 C 15.173748 24.374984 14.955891 24.503153 14.742188 24.626953 C 14.528483 24.750853 14.319076 24.869366 14.162109 24.947266 C 14.128829 24.963266 14.113228 24.968469 14.085938 24.980469 C 14.064258 24.959469 14.051281 24.949875 14.025391 24.921875 C 13.903992 24.794275 13.746859 24.610222 13.587891 24.419922 C 13.428922 24.229722 13.267651 24.033741 13.119141 23.869141 C 13.044881 23.787141 12.97599 23.712131 12.902344 23.644531 C 12.828694 23.577531 12.775339 23.512419 12.603516 23.449219 C 12.431742 23.386219 12.347783 23.400297 12.248047 23.404297 C 12.148307 23.404297 12.046869 23.420547 11.9375 23.435547 C 11.718762 23.465547 11.469302 23.510534 11.226562 23.552734 C 10.983823 23.595734 10.745992 23.635697 10.572266 23.654297 C 10.536266 23.654297 10.521447 23.654063 10.492188 23.664062 C 10.478307 23.636062 10.469125 23.620984 10.453125 23.583984 C 10.382195 23.421884 10.295831 23.194737 10.210938 22.960938 C 10.126038 22.727138 10.040729 22.48715 9.9570312 22.28125 C 9.9151823 22.17835 9.8743262 22.084794 9.828125 21.996094 C 9.781924 21.907094 9.754424 21.826884 9.6152344 21.708984 C 9.4760016 21.590884 9.391939 21.575622 9.296875 21.544922 C 9.201811 21.513922 9.1039673 21.490797 8.9960938 21.466797 C 8.7803464 21.418797 8.5317318 21.375831 8.2890625 21.332031 C 8.0463932 21.288031 7.8084445 21.242972 7.6386719 21.201172 C 7.6012349 21.191172 7.5860736 21.186734 7.5566406 21.177734 C 7.5531606 21.145734 7.549565 21.127891 7.546875 21.087891 C 7.535087 20.910891 7.5338231 20.667069 7.5332031 20.417969 C 7.5325837 20.168769 7.5323752 19.915759 7.5234375 19.693359 C 7.5189675 19.582259 7.513359 19.478106 7.5 19.378906 C 7.486641 19.279906 7.486586 19.196762 7.3964844 19.039062 C 7.3063374 18.881363 7.2330199 18.838844 7.1542969 18.777344 C 7.0755739 18.715344 6.9897644 18.659309 6.8964844 18.599609 C 6.7099243 18.480409 6.4906655 18.353616 6.2773438 18.228516 C 6.0640219 18.103316 5.856445 17.979459 5.7109375 17.880859 C 5.6781985 17.858859 5.66576 17.847125 5.640625 17.828125 C 5.648115 17.797125 5.6509074 17.779234 5.6621094 17.740234 C 5.7109084 17.570134 5.7912684 17.339469 5.875 17.105469 C 5.958732 16.871469 6.0444224 16.631822 6.1113281 16.419922 C 6.1447811 16.313922 6.1742825 16.216941 6.1953125 16.119141 C 6.2163425 16.021141 6.2459368 15.941872 6.2148438 15.763672 C 6.1837548 15.585572 6.1290988 15.516441 6.0761719 15.431641 C 6.0232449 15.346641 5.9618618 15.265834 5.8945312 15.177734 C 5.7598702 15.001334 5.5973392 14.806534 5.4394531 14.615234 C 5.2815671 14.424034 5.1287468 14.23685 5.0253906 14.09375 C 5.0012666 14.06075 4.9923234 14.044578 4.9746094 14.017578 C 4.9923234 13.990578 5.0012666 13.974406 5.0253906 13.941406 C 5.1287467 13.798406 5.281568 13.609269 5.4394531 13.417969 C 5.5973383 13.226669 5.7598736 13.031769 5.8945312 12.855469 C 5.9618602 12.767469 6.0232466 12.684409 6.0761719 12.599609 C 6.1290969 12.514609 6.1837447 12.449684 6.2148438 12.271484 C 6.2459508 12.093284 6.2163435 12.013816 6.1953125 11.916016 C 6.1742845 11.818016 6.1447801 11.719281 6.1113281 11.613281 C 6.0444241 11.401381 5.9587326 11.163788 5.875 10.929688 C 5.791267 10.695688 5.710911 10.465022 5.6621094 10.294922 C 5.6509064 10.255922 5.648111 10.238031 5.640625 10.207031 C 5.665761 10.188031 5.6781985 10.176297 5.7109375 10.154297 C 5.856446 10.055297 6.0640157 9.9317406 6.2773438 9.8066406 C 6.4906717 9.6814406 6.7099063 9.5548469 6.8964844 9.4355469 C 6.9897734 9.3755469 7.0755579 9.3174594 7.1542969 9.2558594 C 7.2330359 9.1938594 7.3063852 9.1518406 7.3964844 8.9941406 C 7.4866954 8.8363406 7.4866404 8.7514437 7.5 8.6523438 C 7.513359 8.5533438 7.5189715 8.4510438 7.5234375 8.3398438 C 7.5323675 8.1174437 7.5325731 7.8623812 7.5332031 7.6132812 C 7.5338245 7.3641813 7.535083 7.1203594 7.546875 6.9433594 C 7.549525 6.9033594 7.5532006 6.8874687 7.5566406 6.8554688 C 7.5861426 6.8454688 7.6011019 6.8390781 7.6386719 6.8300781 C 7.8084307 6.7880781 8.0464013 6.7450719 8.2890625 6.7011719 C 8.5317237 6.6571719 8.7803603 6.6142063 8.9960938 6.5664062 C 9.1039605 6.5424063 9.2018244 6.5173281 9.296875 6.4863281 C 9.391926 6.4553281 9.475993 6.4423187 9.6152344 6.3242188 C 9.754325 6.2062188 9.7819295 6.1258094 9.828125 6.0371094 C 9.87432 5.9481094 9.9151831 5.8548531 9.9570312 5.7519531 C 10.040727 5.5460531 10.126042 5.3060656 10.210938 5.0722656 C 10.295827 4.8384656 10.382195 4.6093656 10.453125 4.4472656 C 10.468805 4.4112656 10.476574 4.3971406 10.490234 4.3691406 C 10.519994 4.3691406 10.535396 4.3689063 10.572266 4.3789062 C 10.745992 4.3979063 10.983823 4.4378688 11.226562 4.4804688 C 11.469302 4.5234687 11.718762 4.5684563 11.9375 4.5976562 C 12.046869 4.6126563 12.14831 4.6249063 12.248047 4.6289062 C 12.347787 4.6289062 12.431742 4.6469844 12.603516 4.5839844 C 12.775314 4.5209844 12.828698 4.4561719 12.902344 4.3886719 C 12.975994 4.3206719 13.044885 4.2463625 13.119141 4.1640625 C 13.267652 3.9994625 13.428919 3.8035812 13.587891 3.6132812 C 13.746863 3.4230812 13.903977 3.236975 14.025391 3.109375 C 14.051041 3.082375 14.064398 3.0737344 14.085938 3.0527344 z M 16 5.5214844 C 11.311159 5.5214844 7.5000015 9.3326844 7.5 14.021484 C 7.5000015 18.710384 11.311159 22.521484 16 22.521484 C 20.68884 22.521484 24.499999 18.710384 24.5 14.021484 C 24.499999 9.3326844 20.68884 5.5214844 16 5.5214844 z M 16 6.4648438 C 20.178423 6.4648438 23.554686 9.8430844 23.554688 14.021484 C 23.554686 18.199884 20.178423 21.576172 16 21.576172 C 11.821577 21.576172 8.4453138 18.199884 8.4453125 14.021484 C 8.4453138 9.8430844 11.821577 6.4648438 16 6.4648438 z M 15.976562 9.234375 C 15.675845 9.234375 15.545363 9.3896469 15.445312 9.4980469 C 15.345261 9.6064469 15.269339 9.7243156 15.191406 9.8535156 C 15.035545 10.112016 14.884465 10.422581 14.736328 10.738281 C 14.588194 11.053881 14.444232 11.372081 14.324219 11.613281 C 14.264219 11.733881 14.210018 11.836844 14.169922 11.902344 C 14.161869 11.915601 14.158293 11.919652 14.150391 11.929688 C 14.139449 11.933844 14.135211 11.935551 14.121094 11.939453 C 14.046494 11.958453 13.93399 11.979 13.800781 12 C 13.534363 12.043 13.187767 12.085513 12.841797 12.132812 C 12.49583 12.179813 12.150999 12.232787 11.857422 12.304688 C 11.710629 12.340688 11.578766 12.378606 11.445312 12.441406 C 11.311853 12.504406 11.126313 12.581187 11.035156 12.867188 C 10.943996 13.153288 11.048704 13.324625 11.121094 13.453125 C 11.193494 13.581525 11.281806 13.688734 11.380859 13.802734 C 11.578976 14.030534 11.829008 14.271666 12.083984 14.509766 C 12.338956 14.747966 12.598273 14.983375 12.791016 15.171875 C 12.887396 15.265875 12.967529 15.34795 13.017578 15.40625 C 13.02608 15.416105 13.026825 15.420489 13.033203 15.429688 C 13.033808 15.442461 13.036205 15.447299 13.035156 15.462891 C 13.029956 15.539891 13.016924 15.655962 12.996094 15.789062 C 12.954424 16.055163 12.887961 16.395281 12.826172 16.738281 C 12.764392 17.081381 12.705989 17.423709 12.683594 17.724609 C 12.672394 17.875009 12.66864 18.013956 12.6875 18.160156 C 12.7064 18.306456 12.722456 18.506741 12.966797 18.681641 C 13.211188 18.856541 13.405992 18.808097 13.550781 18.779297 C 13.695563 18.750297 13.825693 18.701378 13.964844 18.642578 C 14.243143 18.524878 14.549754 18.361859 14.855469 18.193359 C 15.16118 18.024859 15.463997 17.851262 15.703125 17.726562 C 15.82269 17.664563 15.927032 17.615437 15.998047 17.585938 C 16.012774 17.579716 16.018791 17.579731 16.03125 17.576172 C 16.041902 17.579499 16.046697 17.578484 16.058594 17.583984 C 16.129984 17.612984 16.235132 17.662256 16.355469 17.722656 C 16.596131 17.844456 16.899246 18.013034 17.207031 18.177734 C 17.514811 18.342434 17.823778 18.504941 18.103516 18.619141 C 18.243388 18.676141 18.374396 18.7228 18.519531 18.75 C 18.664672 18.777 18.859372 18.822831 19.101562 18.644531 C 19.343743 18.466531 19.359861 18.265541 19.376953 18.119141 C 19.394043 17.972641 19.38804 17.835747 19.375 17.685547 C 19.34889 17.384947 19.284784 17.041519 19.21875 16.699219 C 19.15272 16.356919 19.084014 16.017553 19.039062 15.751953 C 19.016582 15.619253 19.000281 15.504334 18.994141 15.427734 C 18.992988 15.413417 18.993744 15.408546 18.994141 15.396484 C 19.000788 15.386348 19.002411 15.382228 19.011719 15.371094 C 19.061039 15.312094 19.139172 15.226259 19.234375 15.130859 C 19.424776 14.940059 19.681583 14.702337 19.933594 14.460938 C 20.185595 14.219738 20.433624 13.978247 20.628906 13.748047 C 20.726546 13.632847 20.812018 13.521978 20.882812 13.392578 C 20.953612 13.263178 21.057597 13.093594 20.962891 12.808594 C 20.868191 12.523694 20.681099 12.446266 20.546875 12.384766 C 20.412649 12.322766 20.278079 12.286353 20.130859 12.251953 C 19.836421 12.183953 19.493009 12.138803 19.146484 12.095703 C 18.799955 12.052703 18.452465 12.014109 18.185547 11.974609 C 18.052087 11.954609 17.938102 11.935969 17.863281 11.917969 C 17.850265 11.914837 17.84671 11.912079 17.835938 11.908203 C 17.827666 11.898116 17.822989 11.894428 17.814453 11.880859 C 17.773553 11.815859 17.719696 11.715503 17.658203 11.595703 C 17.535219 11.355903 17.3864 11.040363 17.234375 10.726562 C 17.08234 10.412763 16.92857 10.102203 16.769531 9.8457031 C 16.690001 9.7174031 16.611135 9.6013406 16.509766 9.4941406 C 16.408404 9.3869406 16.277246 9.2345281 15.976562 9.2363281 L 15.976562 9.234375 z M 15.984375 10.494141 C 16.092121 10.681041 16.209792 10.901903 16.333984 11.158203 C 16.481613 11.462903 16.62856 11.781728 16.765625 12.048828 C 16.834155 12.182528 16.898969 12.302356 16.966797 12.410156 C 17.034627 12.517956 17.078825 12.609662 17.242188 12.726562 C 17.405531 12.843562 17.506789 12.855166 17.630859 12.884766 C 17.754926 12.914766 17.890328 12.936984 18.039062 12.958984 C 18.336538 13.002984 18.68695 13.041884 19.023438 13.083984 C 19.305923 13.118984 19.551852 13.159372 19.763672 13.201172 C 19.618884 13.360972 19.44561 13.541681 19.240234 13.738281 C 18.995528 13.972681 18.737593 14.211128 18.525391 14.423828 C 18.419294 14.530128 18.325925 14.628762 18.244141 14.726562 C 18.162371 14.824562 18.086327 14.894738 18.025391 15.085938 C 17.964461 15.277137 17.985894 15.377006 17.996094 15.503906 C 18.006284 15.630806 18.025731 15.766063 18.050781 15.914062 C 18.100881 16.210063 18.174164 16.554319 18.238281 16.886719 C 18.292171 17.166119 18.329847 17.412853 18.355469 17.626953 C 18.158236 17.538953 17.932935 17.429322 17.681641 17.294922 C 17.382777 17.135022 17.074851 16.963925 16.806641 16.828125 C 16.672541 16.760125 16.549998 16.701797 16.431641 16.654297 C 16.313281 16.606297 16.222475 16.556594 16.021484 16.558594 C 15.820413 16.558594 15.731058 16.611656 15.613281 16.660156 C 15.4955 16.709156 15.37349 16.770344 15.240234 16.839844 C 14.973716 16.978844 14.667959 17.152906 14.371094 17.316406 C 14.121481 17.454006 13.897301 17.56575 13.701172 17.65625 C 13.724122 17.44175 13.760082 17.194362 13.810547 16.914062 C 13.870547 16.580962 13.937939 16.236053 13.984375 15.939453 C 14.007595 15.791153 14.024583 15.656297 14.033203 15.529297 C 14.041803 15.402197 14.061357 15.301828 13.998047 15.111328 C 13.934757 14.920928 13.860329 14.852559 13.777344 14.755859 C 13.694364 14.658859 13.597642 14.560178 13.490234 14.455078 C 13.275419 14.245078 13.015165 14.010597 12.767578 13.779297 C 12.559565 13.584997 12.385075 13.406147 12.238281 13.248047 C 12.449623 13.204047 12.696322 13.159594 12.978516 13.121094 C 13.314457 13.075094 13.662083 13.034028 13.958984 12.986328 C 14.107439 12.962328 14.241548 12.93725 14.365234 12.90625 C 14.48892 12.87525 14.592018 12.863341 14.753906 12.744141 C 14.915792 12.625241 14.956951 12.532528 15.023438 12.423828 C 15.089918 12.315228 15.153824 12.193094 15.220703 12.058594 C 15.354447 11.789794 15.498735 11.470562 15.642578 11.164062 C 15.763401 10.906563 15.879072 10.682341 15.984375 10.494141 z M 9.703125 24.314453 C 9.7496189 24.39603 9.7968751 24.48045 9.9609375 24.576172 C 10.147899 24.685172 10.252704 24.670828 10.359375 24.673828 C 10.466046 24.673828 10.570132 24.66425 10.681641 24.65625 C 10.904658 24.63225 11.154185 24.588222 11.400391 24.544922 C 11.646596 24.501922 11.888925 24.458894 12.072266 24.433594 C 12.148096 24.423594 12.203342 24.418063 12.25 24.414062 C 12.2841 24.447062 12.32448 24.487022 12.376953 24.544922 C 12.501789 24.683222 12.661069 24.873506 12.822266 25.066406 C 12.849179 25.098629 12.875416 25.12604 12.902344 25.158203 L 10.914062 28.603516 L 10.462891 26.919922 A 0.53732898 0.53732898 0 0 0 9.8046875 26.541016 L 8.1347656 26.988281 L 9.703125 24.314453 z M 22.292969 24.320312 L 23.859375 26.990234 L 22.189453 26.542969 A 0.53693734 0.53693734 0 0 0 21.533203 26.923828 L 21.082031 28.603516 L 19.09375 25.162109 C 19.121895 25.128502 19.149604 25.100087 19.177734 25.066406 C 19.338927 24.873506 19.498212 24.683222 19.623047 24.544922 C 19.675517 24.486922 19.715897 24.446963 19.75 24.414062 C 19.79666 24.414062 19.851906 24.425594 19.927734 24.433594 C 20.111076 24.458594 20.353403 24.501622 20.599609 24.544922 C 20.845816 24.587922 21.095342 24.63195 21.318359 24.65625 C 21.429868 24.66825 21.533954 24.675828 21.640625 24.673828 C 21.747296 24.673828 21.852102 24.685172 22.039062 24.576172 C 22.199177 24.482754 22.247416 24.399941 22.292969 24.320312 z " transform="translate(0,1020.3622)"/></g></svg>