<svg width='200' height='200' fill="#000000" xmlns="http://www.w3.org/2000/svg" xmlns:xlink="http://www.w3.org/1999/xlink" version="1.1" x="0px" y="0px" viewBox="0 0 100 100" enable-background="new 0 0 100 100" xml:space="preserve"><path d="M94.053,88.396L71.678,66.021c11.66-14.491,10.773-35.808-2.672-49.255C62.027,9.789,52.752,5.947,42.885,5.947  c-9.865,0-19.141,3.842-26.117,10.818c-6.979,6.978-10.82,16.253-10.82,26.119s3.842,19.143,10.82,26.119  c6.977,6.977,16.252,10.819,26.117,10.819c8.52,0,16.596-2.871,23.137-8.146l22.375,22.375L94.053,88.396z M42.885,71.823  c-7.729,0-14.996-3.011-20.461-8.477c-5.467-5.466-8.477-12.732-8.477-20.462s3.01-14.996,8.477-20.462  c5.465-5.466,12.732-8.476,20.461-8.476c7.73,0,14.998,3.01,20.465,8.476c11.281,11.283,11.281,29.642,0,40.924  C57.883,68.813,50.615,71.823,42.885,71.823z"/></svg>