<?xml version="1.0" encoding="UTF-8"?>
<svg width="26px" height="25px" viewBox="0 0 26 25" version="1.1" xmlns="http://www.w3.org/2000/svg" xmlns:xlink="http://www.w3.org/1999/xlink">
    <!-- Generator: Sketch 43.1 (39012) - http://www.bohemiancoding.com/sketch -->
    <title>Icon / Bath (white)</title>
    <desc>Created with Sketch.</desc>
    <defs>
        <polygon id="path-1" points="26.9623174 4.01611112e-15 1.13623043 4.01611112e-15 1.13623043 24.8772522 26.9623174 24.8772522 26.9623174 0"></polygon>
    </defs>
    <g id="1.-homepage" stroke="none" stroke-width="1" fill="none" fill-rule="evenodd">
        <g id="MPC_1a_home-desktop" transform="translate(-1218.000000, -894.000000)">
            <g id="featured" transform="translate(0.000000, 714.000000)">
                <g id="Card-/-Property" transform="translate(505.000000, 70.000000)">
                    <g id="details" transform="translate(606.000000, 0.000000)">
                        <g id="icons" transform="translate(27.000000, 110.000000)">
                            <g id="Icon-/-Bath" transform="translate(79.000000, 0.000000)">
                                <mask id="mask-2" fill="white">
                                    <use xlink:href="#path-1"></use>
                                </mask>
                                <g id="Clip-14"></g>
                                <path d="M24.9913174,12.4786435 L23.7504913,12.4786435 L23.7504913,3.17064348 C23.7504913,1.4229913 22.1715783,-0.000226086957 20.2287522,-0.000226086957 C18.2894478,-0.000226086957 16.7093609,1.4229913 16.7093609,3.17064348 L16.7093609,3.81273043 C15.1304478,4.11116522 13.9401,5.3749913 13.9401,6.88525217 C13.9401,7.24133913 14.2617522,7.53073043 14.6573609,7.53073043 L20.1947087,7.53073043 C20.5903174,7.53073043 20.9119696,7.24133913 20.9119696,6.88525217 C20.9119696,5.3749913 19.7216217,4.11116522 18.1427087,3.81273043 L18.1427087,3.17064348 C18.1427087,2.13516522 19.0794913,1.29186087 20.2287522,1.29186087 C21.3803609,1.29186087 22.3159696,2.13516522 22.3159696,3.17064348 L22.3159696,12.4786435 L3.10605652,12.4786435 C2.02018696,12.4786435 1.13623043,13.2744696 1.13623043,14.2545565 C1.13623043,15.1170783 1.82296957,15.8371652 2.73040435,15.9954261 L3.41362174,21.1671652 C3.56740435,22.3213391 4.62862174,23.2008174 5.90936087,23.251687 L5.90936087,24.2317739 C5.90936087,24.5889913 6.22983913,24.8772522 6.62544783,24.8772522 L9.36536087,24.8772522 C9.76096957,24.8772522 10.0826217,24.5889913 10.0826217,24.2317739 L10.0826217,23.2539478 L18.0147522,23.2539478 L18.0147522,24.2317739 C18.0147522,24.5889913 18.3364043,24.8772522 18.732013,24.8772522 L21.4719261,24.8772522 C21.8675348,24.8772522 22.189187,24.5889913 22.189187,24.2317739 L22.189187,23.251687 C23.4687522,23.2008174 24.5299696,22.3213391 24.6837522,21.1671652 L25.3669696,15.9954261 C26.2744043,15.8371652 26.9623174,15.1170783 26.9623174,14.2545565 C26.9623174,13.2744696 26.077187,12.4786435 24.9913174,12.4786435 L24.9913174,12.4786435 Z M19.3483174,6.23977391 L15.5037522,6.23977391 C15.7948826,5.53777391 16.5473609,5.0369913 17.4254478,5.0369913 C18.3047087,5.0369913 19.057187,5.53777391 19.3483174,6.23977391 L19.3483174,6.23977391 Z M8.6481,23.5862957 L7.3427087,23.5862957 L7.3427087,23.2539478 L8.64927391,23.2539478 L8.64927391,23.5862957 L8.6481,23.5862957 Z M19.4492739,23.5862957 L20.7558391,23.5862957 L20.7558391,23.2539478 L19.4492739,23.2539478 L19.4492739,23.5862957 Z M23.2597957,21.0134261 C23.188187,21.5537739 22.6787087,21.9629913 22.0741435,21.9629913 L6.02440435,21.9629913 C5.41983913,21.9629913 4.91036087,21.5537739 4.83875217,21.0134261 L4.17901304,16.0304696 L23.9183609,16.0304696 L23.2597957,21.0134261 Z M24.9913174,14.7383826 L3.10605652,14.7383826 C2.81023043,14.7383826 2.56840435,14.5213391 2.56840435,14.2545565 C2.56840435,13.9866435 2.81023043,13.7718609 3.10605652,13.7718609 L24.9913174,13.7718609 C25.2871435,13.7718609 25.5289696,13.9866435 25.5289696,14.2545565 C25.5277957,14.5213391 25.2871435,14.7383826 24.9913174,14.7383826 L24.9913174,14.7383826 Z" id="Fill-13" fill="#221F20" fill-rule="evenodd" mask="url(#mask-2)"></path>
                            </g>
                        </g>
                    </g>
                </g>
            </g>
        </g>
    </g>
</svg>