<svg width='200' height='200' fill="#000000" xmlns="http://www.w3.org/2000/svg" data-name="Layer 1" viewBox="0 0 100 100" x="0px" y="0px"><title>33</title><g data-name="Group"><path data-name="Compound Path" d="M64.6,31.4A14.6,14.6,0,1,0,50,46.1,14.7,14.7,0,0,0,64.6,31.4Zm-21.3,0A6.6,6.6,0,1,1,50,38.1,6.6,6.6,0,0,1,43.4,31.4Z"/><path data-name="Compound Path" d="M93,83.6,87.4,71.5a12,12,0,0,0-10.9-7H67l7.7-9.4a27,27,0,0,0,4.6-7.8,33.1,33.1,0,0,0-4-30.3,30.7,30.7,0,0,0-50.6,0,33.1,33.1,0,0,0-4,30.3,27,27,0,0,0,4.6,7.8L33,64.5H23.5a12,12,0,0,0-10.9,7L7,83.6a9,9,0,0,0,8.2,12.8H84.9A9,9,0,0,0,93,83.6Zm-64.8-39a25.1,25.1,0,0,1,3-23,22.7,22.7,0,0,1,37.5,0,25.1,25.1,0,0,1,3,23A19,19,0,0,1,68.6,50h0L50,72.6,31.4,50A19,19,0,0,1,28.2,44.5ZM85.7,87.9a1,1,0,0,1-.8.5H15.1a1,1,0,0,1-.9-1.4l5.6-12.1a4,4,0,0,1,3.6-2.3H39.5l5.8,7.1a6,6,0,0,0,9.3,0l5.8-7.1H76.5a4,4,0,0,1,3.6,2.3l5.6,12.1A1,1,0,0,1,85.7,87.9Z"/></g></svg>