<svg width='200' height='200' fill="#000000" xmlns="http://www.w3.org/2000/svg" xmlns:xlink="http://www.w3.org/1999/xlink" version="1.1" x="0px" y="0px" viewBox="0 0 100 100" enable-background="new 0 0 100 100" xml:space="preserve"><path d="M65,62.201V46c0-8.271-6.729-15-15-15c-8.271,0-15,6.729-15,15v16.201c-4.559,0.929-8,4.97-8,9.799v10c0,1.105,0.895,2,2,2  h42c1.105,0,2-0.895,2-2V72C73,67.171,69.559,63.13,65,62.201z M37,65h26c3.859,0,7,3.141,7,7v9H30v-9C30,68.141,33.14,65,37,65z   M50,34c6.617,0,12,5.383,12,12v17H38V46C38,39.383,43.383,34,50,34z M48.5,26v-8c0-0.829,0.671-1.5,1.5-1.5s1.5,0.671,1.5,1.5v8  c0,0.829-0.671,1.5-1.5,1.5S48.5,26.829,48.5,26z M63.082,32.918c-0.586-0.585-0.586-1.535,0-2.121l5.656-5.657  c0.586-0.586,1.535-0.586,2.121,0c0.586,0.585,0.586,1.535,0,2.121l-5.656,5.657C64.626,33.495,63.674,33.51,63.082,32.918z   M79.5,46c0,0.829-0.672,1.5-1.5,1.5h-8c-0.828,0-1.5-0.671-1.5-1.5s0.672-1.5,1.5-1.5h8C78.828,44.5,79.5,45.171,79.5,46z   M29.141,27.262c-0.586-0.585-0.586-1.536,0-2.121c0.586-0.586,1.535-0.586,2.121,0l5.657,5.657c0.586,0.585,0.586,1.536,0,2.121  c-0.581,0.581-1.534,0.588-2.122,0L29.141,27.262z M30,47.5h-8c-0.829,0-1.5-0.671-1.5-1.5s0.671-1.5,1.5-1.5h8  c0.829,0,1.5,0.671,1.5,1.5S30.829,47.5,30,47.5z"/></svg>