<?xml version="1.0" encoding="UTF-8"?>
<svg width="61px" height="23px" viewBox="0 0 61 23" version="1.1" xmlns="http://www.w3.org/2000/svg" xmlns:xlink="http://www.w3.org/1999/xlink">
    <!-- Generator: Sketch 51.2 (57519) - http://www.bohemiancoding.com/sketch -->
    <title>logo/cg-acronym-orange</title>
    <desc>Created with Sketch.</desc>
    <defs></defs>
    <g id="logo/cg-acronym-orange" stroke="none" stroke-width="1" fill="none" fill-rule="evenodd">
        <path d="M40.0259,11.2295 C40.0259,17.9915 44.8189,22.5405 50.5979,22.5405 C54.9319,22.5405 57.3599,19.8975 57.3599,19.8975 L57.4219,19.8975 C57.4219,19.8975 57.3909,20.3575 57.3909,20.8185 L57.3909,22.1725 L60.0939,22.1725 L60.0939,13.4115 C60.0939,12.0295 59.5119,11.4455 58.1279,11.4455 L52.8799,11.4455 L52.8799,14.0875 L56.5919,14.0875 C57.0219,14.0875 57.2689,14.3345 57.2689,14.7645 L57.2689,16.9455 C57.2689,16.9455 54.9619,19.6525 51.0899,19.6525 C46.6939,19.6525 43.2219,16.2725 43.2219,11.2295 C43.2219,6.4045 46.6939,2.9335 51.0259,2.9335 C54.6239,2.9335 56.9579,5.0225 56.9579,5.0225 L58.7109,2.7795 C58.7109,2.7795 56.1609,0.1025 50.9669,0.1025 C44.7579,0.1025 40.0259,4.9925 40.0259,11.2295" id="Fill-1" fill="#F48427"></path>
        <path d="M31.5806,17.9043 C30.4056,19.0163 29.0576,19.5733 27.5326,19.5733 C26.3376,19.5733 25.4106,19.2733 24.7516,18.6753 C24.1546,18.1413 23.8556,17.4213 23.8556,16.5153 C23.8556,14.9893 24.9056,13.6403 27.0076,12.4663 L31.5806,17.9043 Z M36.6326,19.4003 L35.4736,17.9663 C36.5226,16.4633 37.3046,14.7233 37.8206,12.7453 L34.8866,11.9113 C34.5156,13.2483 34.0206,14.4453 33.4026,15.4953 L27.0696,7.7403 C26.3266,6.8323 25.9556,5.9683 25.9556,5.1453 C25.9556,3.8663 26.7756,2.7383 28.6726,2.7383 C30.4656,2.7383 31.4516,3.6113 31.4516,5.0533 L34.5536,5.0533 C34.5266,3.3973 33.8126,2.0633 32.6516,1.2253 C31.4696,0.3723 30.1496,0.0153 28.7046,0.0003 C26.6096,-0.0177 25.3876,0.6743 24.3196,1.5593 C23.2476,2.4453 22.7136,3.6593 22.7136,5.2063 C22.7136,6.5863 23.3916,8.1113 24.7516,9.7793 L25.1516,10.2723 C23.5886,11.1593 22.4546,12.0663 21.7536,12.9923 C20.9906,14.0223 20.6116,15.2463 20.6116,16.6683 C20.6116,18.4823 21.1656,19.8913 22.2806,20.9023 C23.4556,21.9933 25.1636,22.5403 27.4086,22.5403 C29.6956,22.5403 31.7236,21.7573 33.4946,20.1893 L33.5266,20.2243 L33.5116,20.2273 C34.0556,21.0103 34.5656,21.5293 35.1556,21.8363 L35.1646,21.8473 L35.1706,21.8453 C35.6206,22.0773 36.1156,22.1913 36.7096,22.1913 L38.5486,22.1913 L38.5486,19.6003 L37.1576,19.6003 C36.9246,19.6003 36.7496,19.5323 36.6326,19.4003 Z" id="Fill-6" fill="#F48427"></path>
        <path d="M16.9517,17.7573 C15.8547,18.5923 13.8277,19.7853 11.1727,19.7853 C6.3537,19.7853 3.1307,15.8573 3.1307,11.2203 C3.1307,6.6163 6.2917,2.9333 11.1417,2.9333 C14.8887,2.9333 17.4037,5.2973 17.4037,5.2973 L18.9087,3.0243 C18.9087,3.0243 16.2377,0.1713 11.0197,0.1713 C4.7267,0.1713 -0.0003,4.9593 -0.0003,11.2523 C-0.0003,17.6063 4.5737,22.5793 11.0807,22.5793 C14.8627,22.5793 17.4517,20.9153 18.6787,19.9023 L16.9517,17.7573 Z" id="Fill-3" fill="#F48427"></path>
    </g>
</svg>