<?xml version="1.0" encoding="UTF-8"?>
<svg width="32px" height="23px" viewBox="0 0 32 23" version="1.1" xmlns="http://www.w3.org/2000/svg" xmlns:xlink="http://www.w3.org/1999/xlink">
    <!-- Generator: Sketch 43.1 (39012) - http://www.bohemiancoding.com/sketch -->
    <title>Icon / Car (white)</title>
    <desc>Created with Sketch.</desc>
    <defs>
        <polygon id="path-1" points="31.5611429 0.781485714 31.5611429 22.4957714 0.704342857 22.4957714 0.704342857 0.781485714 31.5611429 0.781485714"></polygon>
    </defs>
    <g id="1.-homepage" stroke="none" stroke-width="1" fill="none" fill-rule="evenodd">
        <g id="MPC_1a_home-desktop" transform="translate(-1286.000000, -897.000000)">
            <g id="featured" transform="translate(0.000000, 714.000000)">
                <g id="Card-/-Property" transform="translate(505.000000, 70.000000)">
                    <g id="details" transform="translate(606.000000, 0.000000)">
                        <g id="icons" transform="translate(27.000000, 110.000000)">
                            <g id="Icon-/-Car" transform="translate(148.000000, 3.000000)">
                                <path d="M7.84971429,17.4763429 C7.84971429,16.8157714 8.38342857,16.2774857 9.04057143,16.2774857 C9.69771429,16.2774857 10.2314286,16.8157714 10.2314286,17.4763429 C10.2314286,18.1357714 9.69771429,18.6740571 9.04057143,18.6740571 C8.38342857,18.6740571 7.84971429,18.1357714 7.84971429,17.4763429 M9.04057143,19.8820571 C10.3605714,19.8820571 11.4348571,18.8032 11.4348571,17.4763429 C11.4348571,16.1494857 10.3605714,15.0694857 9.04057143,15.0694857 C7.71942857,15.0694857 6.64628571,16.1494857 6.64628571,17.4763429 C6.64628571,18.8032 7.71942857,19.8820571 9.04057143,19.8820571" id="Fill-1" fill="#221F20"></path>
                                <path d="M24.4161143,17.4763429 C24.4161143,18.1357714 23.8801143,18.6740571 23.2241143,18.6740571 C22.5681143,18.6740571 22.0332571,18.1357714 22.0332571,17.4763429 C22.0332571,16.8157714 22.5681143,16.2774857 23.2241143,16.2774857 C23.8801143,16.2774857 24.4161143,16.8157714 24.4161143,17.4763429 M23.2241143,15.0694857 C21.9041143,15.0694857 20.8298286,16.1494857 20.8298286,17.4763429 C20.8298286,18.8032 21.9041143,19.8820571 23.2241143,19.8820571 C24.5441143,19.8820571 25.6195429,18.8032 25.6195429,17.4763429 C25.6195429,16.1494857 24.5441143,15.0694857 23.2241143,15.0694857" id="Fill-3" fill="#221F20"></path>
                                <g id="Group-7" stroke-width="1" transform="translate(0.000000, 0.008000)">
                                    <mask id="mask-2" fill="white">
                                        <use xlink:href="#path-1"></use>
                                    </mask>
                                    <g id="Clip-6"></g>
                                    <path d="M27.0220571,17.4683429 C27.0220571,19.5746286 25.3180571,21.2866286 23.2243429,21.2866286 C21.1306286,21.2866286 19.4277714,19.5746286 19.4277714,17.4683429 C19.4277714,15.3620571 21.1306286,13.6489143 23.2243429,13.6489143 C25.3180571,13.6489143 27.0220571,15.3620571 27.0220571,17.4683429 M5.24377143,17.4683429 C5.24377143,15.3620571 6.94777143,13.6489143 9.04034286,13.6489143 C11.1340571,13.6489143 12.8380571,15.3620571 12.8380571,17.4683429 C12.8380571,19.5746286 11.1340571,21.2866286 9.04034286,21.2866286 C6.94777143,21.2866286 5.24377143,19.5746286 5.24377143,17.4683429 M28.7660571,10.3266286 C29.4723429,10.7986286 30.0346286,11.5837714 30.2552,12.4043429 C29.3740571,12.1060571 28.7717714,11.2774857 28.7660571,10.3266286 M28.4963429,8.85234286 C28.4586286,8.84091429 26.2117714,8.08662857 26.2117714,8.08662857 C25.8597714,7.96777143 25.3797714,7.5392 25.2220571,7.20205714 L23.2140571,2.90834286 C22.6540571,1.7152 21.1900571,0.781485714 19.8792,0.781485714 L9.77862857,0.781485714 C8.53634286,0.781485714 6.89634286,1.49462857 6.04377143,2.4032 L1.53634286,7.2192 C1.07005714,7.71862857 0.704342857,8.64662857 0.704342857,9.33234286 L0.704342857,15.5014857 C0.704342857,16.9197714 1.85177143,18.0717714 3.25977143,18.0717714 L4.07462857,18.0717714 C4.37748571,20.6020571 6.49405714,22.4957714 9.04034286,22.4957714 C11.5877714,22.4957714 13.7043429,20.6020571 14.0060571,18.0717714 L16.8700571,18.0717714 C17.2026286,18.0717714 17.4712,17.8009143 17.4712,17.4683429 C17.4712,17.1357714 17.2026286,16.8649143 16.8700571,16.8649143 L14.0060571,16.8649143 C13.7043429,14.3346286 11.5877714,12.4409143 9.04034286,12.4409143 C6.49405714,12.4409143 4.37748571,14.3346286 4.07462857,16.8649143 L3.25977143,16.8649143 C2.51462857,16.8649143 1.90777143,16.2534857 1.90777143,15.5014857 L1.90777143,9.33234286 C1.90777143,8.95062857 2.15348571,8.32548571 2.41405714,8.04777143 L6.92262857,3.23291429 C7.5512,2.55977143 8.85862857,1.99177143 9.77862857,1.99177143 L19.8792,1.99177143 C20.7317714,1.99177143 21.7592,2.64662857 22.1226286,3.42148571 L24.1329143,7.71748571 C24.4334857,8.35862857 25.1637714,9.01005714 25.8300571,9.23291429 L27.5969143,9.82605714 C27.5740571,9.98491429 27.5637714,10.1494857 27.5637714,10.3152 C27.5637714,11.9586286 28.7580571,13.3872 30.3569143,13.6774857 L30.3569143,15.5026286 C30.3569143,16.2546286 29.8632,16.8649143 29.2563429,16.8649143 L28.1900571,16.8649143 C27.8894857,14.3346286 25.7717714,12.4409143 23.2243429,12.4409143 C20.4666286,12.4409143 18.2220571,14.6957714 18.2220571,17.4683429 C18.2220571,20.2409143 20.4666286,22.4957714 23.2243429,22.4957714 C25.7717714,22.4957714 27.8894857,20.6020571 28.1900571,18.0717714 L29.2563429,18.0717714 C30.5272,18.0717714 31.5614857,16.9209143 31.5614857,15.5026286 L31.5614857,13.1254857 C31.5614857,11.3369143 30.1889143,9.4192 28.4963429,8.85234286" id="Fill-5" fill="#221F20" mask="url(#mask-2)"></path>
                                </g>
                                <path d="M13.8842286,7.752 L13.8842286,3.96457143 L19.8739429,3.96457143 C19.9745143,3.96914286 20.3082286,4.18057143 20.3516571,4.264 L21.9653714,7.752 L13.8842286,7.752 Z M9.77794286,3.96457143 L11.3288,3.96457143 C11.6602286,3.96457143 11.9299429,3.69371429 11.9299429,3.36 C11.9299429,3.02742857 11.6602286,2.75542857 11.3288,2.75542857 L9.77794286,2.75542857 C9.07394286,2.75542857 7.95165714,3.24457143 7.46708571,3.76 L3.55165714,7.944 C3.38708571,8.11885714 3.34251429,8.37485714 3.43737143,8.59771429 C3.53337143,8.81828571 3.75051429,8.96228571 3.99051429,8.96228571 L22.9093714,8.96228571 C23.1150857,8.96228571 23.3048,8.85714286 23.4156571,8.68114286 C23.5265143,8.50971429 23.5413714,8.288 23.4545143,8.10285714 L21.4442286,3.75314286 C21.2076571,3.25028571 20.4328,2.75542857 19.8796571,2.75542857 L13.2830857,2.75542857 C12.9505143,2.75542857 12.6808,3.02742857 12.6808,3.36 L12.6808,7.752 L5.38365714,7.752 L8.34594286,4.58742857 C8.60194286,4.31314286 9.40651429,3.96457143 9.77794286,3.96457143 L9.77794286,3.96457143 Z" id="Fill-8" fill="#221F20"></path>
                            </g>
                        </g>
                    </g>
                </g>
            </g>
        </g>
    </g>
</svg>