<?xml version="1.0" encoding="UTF-8"?>
<svg width="35px" height="51px" viewBox="0 0 35 51" version="1.1" xmlns="http://www.w3.org/2000/svg" xmlns:xlink="http://www.w3.org/1999/xlink">
    <!-- Generator: Sketch 49.3 (51167) - http://www.bohemiancoding.com/sketch -->
    <title>icon-map</title>
    <desc>Created with Sketch.</desc>
    <defs>
        <rect id="path-1" x="0" y="0" width="23.6049705" height="18.2402045"></rect>
    </defs>
    <g id="Page-1" stroke="none" stroke-width="1" fill="none" fill-rule="evenodd">
        <g id="icon-map">
            <path d="M17.3857959,51 C11.7420459,42.05256 -0.222549647,27.0657 0.0031488825,17.223465 C0.228847412,7.60512 7.67870035,0 17.3857959,0 C26.867193,0 34.5427445,7.60512 34.768443,17.223465 C34.9941415,27.0657 23.0295459,42.05256 17.3857959,51" id="Shape" fill="#FFFFFF" fill-rule="nonzero"></path>
            <g id="Logo-/-Logomark" transform="translate(17.722933, 17.230832) rotate(-15.000000) translate(-17.722933, -17.230832) translate(5.722933, 7.730832)">
                <g id="MY_Logo-Master-RGB-Clipped">
                    <mask id="mask-2" fill="white">
                        <use xlink:href="#path-1"></use>
                    </mask>
                    <g id="path-1"></g>
                    <g id="MY_Logo-Master-RGB" mask="url(#mask-2)" fill-rule="nonzero">
                        <path d="M22.1433577,0.017322983 C22.0761038,0.017322983 22.0256633,0.0346459659 21.9584094,0.0346459659 C21.9079689,0.0346459659 21.874342,0.0519689489 21.8239015,0.0692919318 C21.807088,0.0692919318 21.7902745,0.0866149149 21.773461,0.0866149149 C21.7398341,0.0866149149 21.7230206,0.103937898 21.7062072,0.12126088 L21.6893937,0.12126088 C21.6893937,0.12126088 21.6725802,0.12126088 21.6725802,0.138583863 C21.6221398,0.155906846 21.5716993,0.190552813 21.5212589,0.225198779 C21.5212589,0.225198779 21.5212589,0.225198779 21.5044454,0.225198779 C21.4540049,0.259844745 21.4035645,0.29449071 21.3699375,0.329136676 C21.353124,0.329136676 21.3363105,0.346459659 21.319497,0.346459659 C21.2858701,0.381105625 21.2354296,0.415751591 21.2018026,0.46772054 C21.1849891,0.485043524 21.1849891,0.502366506 21.1681757,0.502366506 C21.1345487,0.537012472 21.1009217,0.588981421 21.0672947,0.64095037 C21.0336679,1.02205599 20.9664139,1.40316162 20.8823465,1.76694426 C20.6637712,2.73703131 20.3106881,3.6551494 19.856724,4.50397557 C19.7222161,4.74649734 19.5877083,4.98901909 19.4363869,5.21421787 C18.9487958,5.97642912 18.3603239,6.66934845 17.6877846,7.25832986 L17.6877846,1.29922372 C17.6877846,0.588981421 17.1161262,1.14712502e-15 16.4267733,1.14712502e-15 L16.4435868,1.14712502e-15 L16.4267733,1.14712502e-15 L16.4435868,1.14712502e-15 C15.9896228,1.14712502e-15 15.5860991,0.259844745 15.3675239,0.64095037 C15.2498295,0.831503183 15.1825756,1.07402494 15.1825756,1.3165467 L15.1825756,8.90401324 L15.1825756,9.59693256 C15.1825756,10.3071749 15.7374205,10.8961563 16.4267733,10.8961563 L16.4435868,10.8961563 L16.4604003,10.8961563 C16.5444677,10.8961563 16.6285352,10.8788333 16.7126026,10.8615103 L16.7294161,10.8615103 C16.79667,10.8441874 16.863924,10.8268643 16.9311778,10.7922184 L16.9479913,10.7922184 C16.9648048,10.7922184 16.9648048,10.7748954 16.9816183,10.7748954 C17.0320587,10.7575724 17.0656857,10.7229265 17.1161262,10.7056035 C18.1249352,10.151268 19.0328632,9.44102571 19.856724,8.62684552 C19.9576049,8.52290762 20.0584858,8.43629271 20.1425532,8.33235481 C20.4283824,8.0378641 20.6805847,7.7260504 20.932787,7.39691372 L20.932787,16.8552624 C20.932787,17.5655048 21.5044454,18.1544861 22.1937982,18.1544861 C22.1937982,18.1544861 22.1937982,18.1544861 22.1769847,18.1544861 L22.1937982,18.1544861 C22.1937982,18.1544861 22.1937982,18.1544861 22.1769847,18.1544861 C22.6309487,18.1544861 23.0344724,17.8946414 23.2530476,17.5135357 C23.370742,17.322983 23.437996,17.0804613 23.437996,16.8379394 L23.437996,1.47245355 L23.437996,1.33386969 C23.404369,0.606304404 22.8327106,0.0346459659 22.1433577,0.017322983 Z" id="Shape" fill="#EB008B"></path>
                        <g id="Group" fill="#EB008B">
                            <path d="M12.6941801,0.017322983 C12.5260452,0.017322983 12.3747238,0.0519689489 12.2234025,0.12126088 C12.172962,0.138583863 12.1225215,0.17322983 12.0888946,0.190552813 C12.0720811,0.207875796 12.0552677,0.207875796 12.0384542,0.225198779 C12.0216407,0.225198779 12.0216407,0.242521762 12.0048272,0.242521762 C11.0296452,0.796857217 10.1385305,1.48977653 9.33148333,2.28663375 C9.23060242,2.39057165 9.12972153,2.47718657 9.04565411,2.58112447 C8.75982489,2.87561518 8.50762264,3.18742886 8.25542038,3.51656554 L8.25542038,2.02678901 L8.25542038,1.33386969 C8.25542038,0.623627387 7.68376195,0.0346459659 6.99440913,0.0346459659 C6.82627429,0.0346459659 6.67495293,0.0692919318 6.52363158,0.138583863 C6.47319113,0.138583863 6.43956417,0.155906846 6.38912371,0.17322983 C6.37231024,0.190552813 6.33868327,0.190552813 6.32186978,0.207875796 C5.31306078,0.76221125 4.40513267,1.47245355 3.58127198,2.28663375 C3.48039107,2.39057165 3.37951018,2.47718657 3.29544276,2.58112447 C3.00961354,2.87561518 2.75741129,3.18742886 2.50520904,3.51656554 L2.50520904,9.146535 C2.72378433,8.17644796 3.07686747,7.25832986 3.53083153,6.4095037 C3.6653394,6.16698194 3.79984726,5.92446017 3.95116862,5.6992614 C4.43875964,4.93705014 5.02723156,4.24413083 5.69977089,3.6551494 L5.69977089,9.4583487 L5.69977089,9.59693256 C5.69977089,10.3071749 6.25461585,10.8961563 6.94396867,10.8961563 L6.96078216,10.8961563 L6.97759564,10.8961563 L7.0112226,10.8961563 C7.06166306,10.8961563 7.11210351,10.8961563 7.16254396,10.8788333 L7.17935744,10.8788333 C7.26342486,10.8615103 7.34749227,10.8441874 7.43155969,10.8095414 C7.49881362,10.7922184 7.54925407,10.7575724 7.59969453,10.7229265 C7.61650802,10.7229265 7.61650802,10.7056035 7.63332149,10.7056035 C7.68376195,10.6709575 7.71738891,10.6536345 7.75101588,10.6189886 C7.76782936,10.6016656 7.78464284,10.5843426 7.80145633,10.5843426 C7.83508329,10.5496966 7.86871026,10.5323736 7.88552375,10.4977277 C7.90233723,10.4804047 7.91915071,10.4630817 7.91915071,10.4457587 C7.95277768,10.3937898 7.98640465,10.3591438 8.02003162,10.3071749 C8.02003162,10.3071749 8.02003162,10.2898519 8.03684509,10.2898519 C8.07047206,9.90874626 8.137726,9.52764063 8.22179342,9.16385799 C8.4403687,8.19377094 8.79345185,7.27565284 9.24741591,6.42682668 C9.38192378,6.18430492 9.51643164,5.94178316 9.667753,5.71658438 C10.155344,4.95437312 10.7438159,4.26145381 11.4163552,3.67247239 L11.4163552,9.61425555 C11.4163552,10.3244978 11.9880138,10.9134792 12.6773666,10.9134792 C12.6773666,10.9134792 12.6773666,10.9134792 12.6605531,10.9134792 L12.6773666,10.9134792 C12.6773666,10.9134792 12.6773666,10.9134792 12.6605531,10.9134792 C13.1145171,10.9134792 13.5180407,10.6536345 13.736616,10.2725289 C13.8543104,10.0819761 13.9215643,9.83945433 13.9215643,9.59693256 L13.9215643,2.02678901 L13.9215643,1.33386969 C13.9551913,0.623627387 13.3835329,0.0346459659 12.6941801,0.017322983 Z" id="Shape"></path>
                            <path d="M1.26101126,0.017322983 C0.571658438,0.0346459659 0,0.606304404 0,1.33386969 L0,9.4583487 L0,9.59693256 C0,10.3071749 0.571658438,10.8961563 1.26101126,10.8961563 L1.29463822,10.8961563 C1.34507867,10.8961563 1.39551913,10.8961563 1.44595958,10.8788333 L1.46277306,10.8788333 C1.54684048,10.8615103 1.63090789,10.8441874 1.71497531,10.8095414 L1.7317888,10.8095414 C1.79904273,10.7922184 1.84948318,10.7575724 1.89992363,10.7229265 C1.91673711,10.7229265 1.91673711,10.7056035 1.9335506,10.7056035 C1.98399105,10.6709575 2.01761802,10.6536345 2.05124498,10.6189886 C2.06805847,10.6016656 2.08487195,10.5843426 2.10168544,10.5843426 C2.1353124,10.5496966 2.16893937,10.5323736 2.18575285,10.4977277 C2.20256633,10.4804047 2.21937982,10.4630817 2.21937982,10.4457587 C2.25300678,10.3937898 2.28663375,10.3591438 2.32026072,10.3071749 C2.32026072,10.3071749 2.32026072,10.2898519 2.3370742,10.2898519 C2.37070117,9.90874626 2.43795511,9.52764063 2.52202252,9.16385799 L2.52202252,3.51656554 L2.52202252,1.33386969 C2.50520904,0.606304404 1.95036409,0.0346459659 1.26101126,0.017322983 Z" id="Shape"></path>
                        </g>
                        <g id="XMLID_1_">
                            <path d="M21.6893937,6.21895089 C21.4371914,6.63470248 21.1849891,7.03313108 20.89916,7.41423671 L20.89916,16.8725854 C20.89916,17.5828277 21.4708184,18.1718092 22.1601712,18.1718092 C22.1601712,18.1718092 22.1601712,18.1718092 22.1433577,18.1718092 L22.1601712,18.1718092 C22.1601712,18.1718092 22.1601712,18.1718092 22.1433577,18.1718092 C22.5973218,18.1718092 23.0008454,17.9119644 23.2194206,17.5308588 C23.337115,17.340306 23.404369,17.0977842 23.404369,16.8552624 L23.404369,1.47245355 C23.1689802,3.01419903 22.6645757,4.45200663 21.9584094,5.76855333 C21.874342,5.92446017 21.773461,6.06304404 21.6893937,6.21895089 Z" id="XMLID_135_" fill="#EB008B"></path>
                            <path d="M8.22179342,2.02678901 C7.29705182,2.4425406 6.45637765,2.99687605 5.71658438,3.6551494 L5.71658438,9.4583487 C5.95197315,7.91660322 6.45637765,6.47879563 7.16254396,5.16224892 C7.24661138,5.00634207 7.34749227,4.86775822 7.43155969,4.71185137 C7.68376195,4.29609978 7.9359642,3.89767117 8.22179342,3.51656554 L8.22179342,2.02678901 Z" id="XMLID_150_" fill="#EB008B"></path>
                            <path d="M6.38912371,0.17322983 C6.37231024,0.190552813 6.33868327,0.190552813 6.32186978,0.207875796 C5.31306078,0.76221125 4.40513267,1.47245355 3.58127198,2.28663375 C3.48039107,2.39057165 3.37951018,2.47718657 3.29544276,2.58112447 C3.00961354,2.87561518 2.75741129,3.18742886 2.50520904,3.51656554 L2.50520904,9.146535 C2.72378433,8.17644796 3.07686747,7.25832986 3.53083153,6.4095037 C3.6653394,6.16698194 3.79984726,5.92446017 3.95116862,5.6992614 C4.43875964,4.93705014 5.02723156,4.24413083 5.69977089,3.6551494 L5.69977089,1.33386969 C5.71658438,0.831503183 6.0024136,0.398428608 6.38912371,0.17322983 Z" id="XMLID_9_" fill="#EB008B"></path>
                            <path d="M8.22179342,1.33386969 C8.22179342,0.623627387 7.65013498,0.0346459659 6.96078216,0.0346459659 C6.79264732,0.0346459659 6.64132597,0.0692919318 6.49000462,0.138583863 C6.47319113,0.138583863 6.43956417,0.155906846 6.38912371,0.17322983 C5.98560011,0.398428608 5.71658438,0.831503183 5.71658438,1.3165467 L5.71658438,3.63782642 C6.47319113,2.97955308 7.31386531,2.42521762 8.22179342,2.00946602 L8.22179342,1.33386969 Z" id="XMLID_163_" fill="#CA187C"></path>
                            <path d="M5.71658438,9.59693256 L5.71658438,9.4583487 L5.71658438,9.59693256 C5.71658438,10.3071749 6.27142933,10.8961563 6.96078216,10.8961563 C6.28824282,10.8961563 5.71658438,10.3244978 5.71658438,9.59693256 Z" id="XMLID_168_" fill="#CA187C"></path>
                            <path d="M11.9880138,0.259844745 C11.0128317,0.8141802 10.1217171,1.50709952 9.31466984,2.30395674 C9.21378894,2.40789463 9.11290804,2.49450955 9.02884062,2.59844745 C8.7430114,2.89293816 8.49080915,3.20475185 8.23860689,3.53388852 L8.23860689,9.16385799 C8.45718218,8.19377094 8.81026533,7.27565284 9.26422939,6.42682668 C9.39873726,6.18430492 9.53324513,5.94178316 9.68456647,5.71658438 C10.1721575,4.95437312 10.7606294,4.26145381 11.4331687,3.67247239 L11.4331687,1.35119267 C11.4331687,0.883472131 11.651744,0.485043524 11.9880138,0.259844745 Z" id="XMLID_173_" fill="#EB008B"></path>
                            <path d="M12.6941801,0.017322983 C12.5260452,0.017322983 12.3747238,0.0519689489 12.2234025,0.12126088 C12.172962,0.138583863 12.1225215,0.17322983 12.0888946,0.190552813 C12.0720811,0.207875796 12.0552677,0.207875796 12.0384542,0.225198779 C12.0216407,0.225198779 12.0216407,0.242521762 12.0048272,0.242521762 C11.6685575,0.485043524 11.4499822,0.866149149 11.4499822,1.3165467 L11.4499822,3.63782642 C12.206589,2.97955308 13.0472632,2.42521762 13.9551913,2.00946602 L13.9551913,1.3165467 C13.9551913,0.623627387 13.3835329,0.0346459659 12.6941801,0.017322983 Z" id="XMLID_174_" fill="#CA187C"></path>
                            <path d="M8.22179342,3.51656554 C7.9359642,3.89767117 7.66694846,4.29609978 7.43155969,4.71185137 C7.34749227,4.86775822 7.24661138,5.00634207 7.16254396,5.16224892 C6.43956417,6.46147265 5.95197315,7.91660322 5.71658438,9.4583487 L5.71658438,9.59693256 C5.71658438,10.3071749 6.28824282,10.8961563 6.97759564,10.8961563 L7.0112226,10.8961563 C7.06166306,10.8961563 7.11210351,10.8961563 7.16254396,10.8788333 L7.17935744,10.8788333 C7.26342486,10.8615103 7.34749227,10.8441874 7.43155969,10.8095414 L7.44837318,10.8095414 C7.51562711,10.7922184 7.56606756,10.7575724 7.61650802,10.7229265 C7.63332149,10.7229265 7.63332149,10.7056035 7.65013498,10.7056035 C7.70057542,10.6709575 7.7342024,10.6536345 7.76782936,10.6189886 C7.78464284,10.6016656 7.80145633,10.5843426 7.81826982,10.5843426 C7.85189678,10.5496966 7.88552375,10.5323736 7.90233723,10.4977277 C7.91915071,10.4804047 7.9359642,10.4630817 7.9359642,10.4457587 C7.96959116,10.3937898 8.00321813,10.3591438 8.03684509,10.3071749 C8.03684509,10.3071749 8.03684509,10.2898519 8.05365858,10.2898519 C8.08728555,9.90874626 8.15453948,9.52764063 8.23860689,9.16385799 L8.22179342,3.51656554 Z" id="XMLID_175_" fill="#CA187C"></path>
                            <path d="M2.50520904,3.51656554 C2.21937982,3.89767117 1.95036409,4.29609978 1.71497531,4.71185137 C1.63090789,4.86775822 1.530027,5.00634207 1.44595958,5.16224892 C0.739793273,6.47879563 0.235388769,7.91660322 0,9.4583487 L0,9.59693256 C0,10.3071749 0.571658438,10.8961563 1.26101126,10.8961563 L1.29463822,10.8961563 C1.34507867,10.8961563 1.39551913,10.8961563 1.44595958,10.8788333 L1.46277306,10.8788333 C1.54684048,10.8615103 1.63090789,10.8441874 1.71497531,10.8095414 L1.7317888,10.8095414 C1.79904273,10.7922184 1.84948318,10.7575724 1.89992363,10.7229265 C1.91673711,10.7229265 1.91673711,10.7056035 1.9335506,10.7056035 C1.98399105,10.6709575 2.01761802,10.6536345 2.05124498,10.6189886 C2.06805847,10.6016656 2.08487195,10.5843426 2.10168544,10.5843426 C2.1353124,10.5496966 2.16893937,10.5323736 2.18575285,10.4977277 C2.20256633,10.4804047 2.21937982,10.4630817 2.21937982,10.4457587 C2.25300678,10.3937898 2.28663375,10.3591438 2.32026072,10.3071749 C2.32026072,10.3071749 2.32026072,10.2898519 2.3370742,10.2898519 C2.37070117,9.90874626 2.43795511,9.52764063 2.52202252,9.16385799 L2.50520904,3.51656554 Z" id="XMLID_2_" fill="#CA187C"></path>
                            <path d="M19.856724,4.52129856 C19.7222161,4.76382032 19.5877083,5.00634207 19.4363869,5.23154085 C18.9487958,5.99375211 18.3603239,6.68667143 17.6877846,7.27565284 L17.6877846,9.59693256 C17.6877846,10.116622 17.3851419,10.5670196 16.9479913,10.7748954 C16.9984318,10.7575724 17.0320587,10.7229265 17.0824992,10.7056035 C18.0913082,10.151268 18.9992363,9.44102571 19.823097,8.62684552 C19.9239779,8.52290762 20.0248588,8.43629271 20.1089262,8.33235481 C20.3947554,8.0378641 20.6469577,7.7260504 20.89916,7.39691372 L20.89916,1.76694426 C20.6805847,2.7543543 20.3275016,3.67247239 19.856724,4.52129856 Z" id="XMLID_182_" fill="#EB008B"></path>
                            <path d="M15.1657621,9.59693256 C15.1657621,10.3071749 15.720607,10.8961563 16.4099598,10.8961563 C15.7374205,10.8961563 15.1657621,10.3244978 15.1657621,9.59693256 Z" id="XMLID_183_" fill="#CA187C"></path>
                            <path d="M17.6877846,9.59693256 L17.6877846,7.27565284 C16.9311778,7.9339262 16.0905037,8.48826166 15.1825756,8.90401324 L15.1825756,9.59693256 C15.1825756,10.3071749 15.754234,10.8961563 16.4435868,10.8961563 C16.5276542,10.8961563 16.6117217,10.8788333 16.6957891,10.8615103 L16.7126026,10.8615103 C16.7798565,10.8441874 16.8471105,10.8268643 16.9143643,10.7922184 C16.9311778,10.7922184 16.9311778,10.7748954 16.9479913,10.7748954 C17.3851419,10.5843426 17.6877846,10.133945 17.6877846,9.59693256 Z" id="XMLID_192_" fill="#CA187C"></path>
                        </g>
                        <path d="M17.6877846,1.33386969 C17.6877846,0.623627387 17.1161262,0.0346459659 16.4267733,0.0346459659 L16.4435868,0.0346459659 L16.4267733,0.0346459659 L16.4435868,0.0346459659 C15.9896228,0.0346459659 15.5860991,0.29449071 15.3675239,0.675596336 C15.2498295,0.866149149 15.1825756,1.10867091 15.1825756,1.35119267 L15.1825756,8.93865921 C16.1073172,8.52290762 16.9479913,7.96857217 17.6877846,7.31029881 L17.6877846,1.33386969 Z" id="XMLID_6_" fill="#EB008B"></path>
                        <path d="M12.6941801,10.9134792 C12.6941801,10.9134792 12.6773666,10.9134792 12.6941801,10.9134792 C13.1481441,10.9134792 13.5516676,10.6536345 13.770243,10.2725289 C13.8879374,10.0819761 13.9551913,9.83945433 13.9551913,9.59693256 L13.9551913,2.02678901 C13.0304497,2.4425406 12.1897755,2.99687605 11.4499822,3.6551494 L11.4499822,9.59693256 C11.4331687,10.3244978 12.0048272,10.8961563 12.6941801,10.9134792 Z" id="XMLID_5_" fill="#EB008B"></path>
                        <g id="XMLID_8_" transform="translate(20.848720, 0.000000)" fill="#CA187C">
                            <path d="M1.29463822,0.017322983 C1.22738429,0.017322983 1.17694384,0.0346459659 1.10968991,0.0346459659 C1.05924946,0.0346459659 1.02562249,0.0519689489 0.975182042,0.0692919318 C0.958368558,0.0692919318 0.941555074,0.0866149149 0.924741591,0.0866149149 C0.891114624,0.0866149149 0.87430114,0.103937898 0.857487657,0.12126088 L0.840674173,0.12126088 C0.840674173,0.12126088 0.823860689,0.12126088 0.823860689,0.138583863 C0.77342024,0.155906846 0.722979789,0.190552813 0.672539338,0.225198779 C0.672539338,0.225198779 0.672539338,0.225198779 0.655725855,0.225198779 C0.605285405,0.259844745 0.554844955,0.29449071 0.521217987,0.329136676 C0.504404504,0.329136676 0.48759102,0.346459659 0.470777537,0.346459659 C0.437150571,0.381105625 0.38671012,0.415751591 0.353083153,0.46772054 C0.336269669,0.485043524 0.336269669,0.502366506 0.319456186,0.502366506 C0.285829219,0.537012472 0.252202252,0.588981421 0.218575285,0.64095037 C0.184948318,1.02205599 0.117694384,1.40316162 0.0336269669,1.76694426 L0.0336269669,7.39691372 C0.319456186,7.0158081 0.588471922,6.6173795 0.823860689,6.2016279 C0.907928107,6.04572106 1.00880901,5.90713719 1.09287642,5.75123034 C1.81585622,4.45200663 2.30344724,2.99687605 2.538836,1.45513057 L2.538836,1.33386969 C2.55564949,0.606304404 1.98399105,0.0346459659 1.29463822,0.017322983 Z" id="XMLID_10_"></path>
                        </g>
                        <g id="XMLID_4_" fill="#EB008B">
                            <path d="M1.26101126,0.017322983 C0.571658438,0.0346459659 0,0.606304404 0,1.33386969 L0,9.4583487 C0.235388769,7.91660322 0.739793273,6.47879563 1.44595958,5.16224892 C1.530027,5.00634207 1.63090789,4.86775822 1.71497531,4.71185137 C1.96717756,4.29609978 2.21937982,3.89767117 2.50520904,3.51656554 L2.50520904,1.33386969 C2.50520904,0.606304404 1.95036409,0.0346459659 1.26101126,0.017322983 Z" id="XMLID_7_"></path>
                        </g>
                        <g id="Group" transform="translate(26.901573, 0.000000)" fill="#1E1B1C">
                            <path d="M0.77342024,2.5464785 L1.71497531,2.5464785 C1.91673711,2.5464785 2.11849891,2.52915552 2.32026072,2.49450955 C2.52202252,2.45986358 2.70697084,2.39057165 2.85829219,2.30395674 C3.00961354,2.21734182 3.1441214,2.07875796 3.24500231,1.92285111 C3.34588321,1.76694426 3.39632366,1.54174548 3.39632366,1.29922372 C3.39632366,1.12599389 3.37951018,0.970087046 3.32906973,0.8141802 C3.27862927,0.658273353 3.21137534,0.519689489 3.11049444,0.398428608 C3.00961354,0.277167728 2.85829219,0.190552813 2.67334387,0.12126088 C2.48839555,0.0519689489 2.25300678,0.017322983 1.96717756,0.017322983 L0.353083153,0.017322983 L0.353083153,4.57326751 L0.77342024,4.57326751 L0.77342024,2.5464785 Z M0.77342024,0.363782642 L1.84948318,0.363782642 C2.25300678,0.363782642 2.538836,0.433074574 2.72378433,0.588981421 C2.90873264,0.744888267 2.99280006,0.952764063 2.99280006,1.24725477 C2.99280006,1.43780758 2.95917309,1.59371443 2.90873264,1.71497531 C2.84147871,1.83623619 2.75741129,1.92285111 2.65653038,1.99214304 C2.55564949,2.06143497 2.42114162,2.11340392 2.25300678,2.13072691 C2.10168544,2.14804989 1.91673711,2.16537287 1.7317888,2.16537287 L0.77342024,2.16537287 L0.77342024,0.363782642 Z" id="Shape"></path>
                            <path d="M4.97679111,1.69765233 C5.11129898,1.6283604 5.2794338,1.59371443 5.49800909,1.59371443 L5.49800909,1.19528582 C5.22899336,1.19528582 5.01041807,1.24725477 4.85909673,1.35119267 C4.69096189,1.45513057 4.57326751,1.6283604 4.45557312,1.90552813 L4.43875964,1.90552813 L4.43875964,1.28190074 L4.068863,1.28190074 L4.068863,4.55594452 L4.43875964,4.55594452 L4.43875964,2.9449071 C4.43875964,2.77167728 4.45557312,2.59844745 4.48920009,2.42521762 C4.52282705,2.25198779 4.57326751,2.11340392 4.65733492,1.99214304 C4.74140234,1.87088216 4.84228324,1.76694426 4.97679111,1.69765233 Z" id="Shape"></path>
                            <path d="M3.36269669,9.66622449 C3.27862927,9.82213134 3.17774838,9.94339222 3.06005399,10.0646531 C2.9423596,10.168591 2.80785174,10.2552059 2.65653038,10.3244978 C2.50520904,10.3937898 2.3370742,10.4111128 2.1353124,10.4111128 C1.83266969,10.4111128 1.58046745,10.3591438 1.37870564,10.2378829 C1.17694384,10.116622 1.02562249,9.96071521 0.907928107,9.77016239 C0.790233723,9.57960958 0.706166306,9.3544108 0.655725855,9.11188904 C0.605285405,8.86936727 0.571658438,8.62684552 0.571658438,8.36700078 C0.571658438,8.08983305 0.605285405,7.84731128 0.655725855,7.60478952 C0.722979789,7.36226776 0.807047206,7.15439196 0.924741591,6.96383915 C1.04243597,6.77328633 1.21057081,6.63470248 1.39551913,6.5134416 C1.58046745,6.4095037 1.81585622,6.35753475 2.08487195,6.35753475 C2.45476858,6.35753475 2.75741129,6.44414967 2.99280006,6.60005651 C3.22818882,6.75596336 3.37951018,7.03313108 3.4635776,7.43155969 L3.90072816,7.43155969 C3.8671012,7.18903793 3.79984726,6.98116213 3.69896636,6.8079323 C3.59808546,6.63470248 3.48039107,6.47879563 3.32906973,6.35753475 C3.17774838,6.23627387 3.00961354,6.14965895 2.80785174,6.08036702 C2.60608994,6.01107509 2.40432813,5.99375211 2.18575285,5.99375211 C1.88311015,5.99375211 1.61409442,6.02839807 1.36189216,6.11501299 C1.10968991,6.2016279 0.891114624,6.34021177 0.706166306,6.53076458 C0.521217987,6.7213174 0.369896636,6.96383915 0.269015735,7.27565284 C0.168134835,7.58746654 0.117694384,7.95124918 0.117694384,8.38432376 C0.117694384,8.71346044 0.151321351,9.00795114 0.218575285,9.30244185 C0.285829219,9.59693256 0.403523603,9.83945433 0.554844955,10.0646531 C0.706166306,10.2898519 0.907928107,10.4630817 1.14331687,10.5843426 C1.37870564,10.7056035 1.68134835,10.7748954 2.01761802,10.7748954 C2.32026072,10.7748954 2.57246297,10.7402494 2.79103826,10.6536345 C3.00961354,10.5670196 3.19456186,10.4457587 3.34588321,10.3071749 C3.49720456,10.151268 3.61489895,9.99536117 3.71577985,9.78748538 C3.81666075,9.59693256 3.88391468,9.38905677 3.93435513,9.16385799 L3.49720456,9.16385799 C3.49720456,9.33708782 3.44676411,9.51031765 3.36269669,9.66622449 Z" id="Shape"></path>
                        </g>
                    </g>
                </g>
            </g>
        </g>
    </g>
</svg>