<?xml version="1.0" encoding="UTF-8"?>
<svg width="140px" height="105px" viewBox="0 0 140 105" version="1.1" xmlns="http://www.w3.org/2000/svg" xmlns:xlink="http://www.w3.org/1999/xlink">
    <!-- Generator: Sketch 48.2 (47327) - http://www.bohemiancoding.com/sketch -->
    <title>XMLID_1_</title>
    <desc>Created with Sketch.</desc>
    <defs></defs>
    <g id="Page-1" stroke="none" stroke-width="1" fill="none" fill-rule="evenodd">
        <g id="MY_Logo-Master-RGB" fill-rule="nonzero">
            <g id="XMLID_1_">
                <path d="M129,35.9 C127.5,38.3 126,40.6 124.3,42.8 C124.3,42.8 124.3,42.8 124.3,42.8 L124.3,97.4 C124.3,101.5 127.7,104.9 131.8,104.9 C131.8,104.9 131.8,104.9 131.7,104.9 L131.8,104.9 C131.8,104.9 131.8,104.9 131.7,104.9 C134.4,104.9 136.8,103.4 138.1,101.2 C138.1,101.2 138.1,101.2 138.1,101.2 C138.8,100.1 139.2,98.7 139.2,97.3 L139.2,8.5 C137.8,17.4 134.8,25.7 130.6,33.3 C130.1,34.2 129.5,35 129,35.9 Z" id="XMLID_135_" fill="#EB008B"></path>
                <path d="M47.8,59.4 C47.6,59.7 47.4,59.9 47.2,60.2 C47.4,60 47.6,59.7 47.8,59.4 Z" id="XMLID_142_" fill="#CA187C"></path>
                <path d="M47,60.5 C46.8,60.7 46.7,60.9 46.5,61 C46.6,60.9 46.8,60.7 47,60.5 Z" id="XMLID_143_" fill="#CA187C"></path>
                <path d="M45.3,61.9 C45,62.1 44.6,62.3 44.3,62.4 C44.6,62.3 45,62.1 45.3,61.9 Z" id="XMLID_144_" fill="#CA187C"></path>
                <path d="M41.4,63 C41.5,63 41.5,63 41.4,63 C41.4,63 41.4,63 41.4,63 Z" id="XMLID_146_" fill="#CA187C"></path>
                <path d="M41.6,63 C41.5,63 41.5,63 41.6,63 C41.5,63 41.5,63 41.6,63 Z" id="XMLID_147_" fill="#CA187C"></path>
                <path d="M46.2,61.3 C46,61.5 45.7,61.7 45.5,61.8 C45.7,61.6 45.9,61.4 46.2,61.3 Z" id="XMLID_148_" fill="#CA187C"></path>
                <path d="M42.6,62.9 C42.3,62.9 42,63 41.7,63 C42,62.9 42.3,62.9 42.6,62.9 Z" id="XMLID_149_" fill="#CA187C"></path>
                <path d="M48.9,11.7 C43.4,14.1 38.4,17.3 34,21.1 L34,54.6 C35.4,45.7 38.4,37.4 42.6,29.8 C43.1,28.9 43.7,28.1 44.2,27.2 C45.7,24.8 47.2,22.5 48.9,20.3 L48.9,11.7 Z" id="XMLID_150_" fill="#EB008B"></path>
                <path d="M44.2,62.4 C43.7,62.6 43.2,62.7 42.7,62.8 C43.2,62.8 43.7,62.6 44.2,62.4 Z" id="XMLID_151_" fill="#CA187C"></path>
                <path d="M38,1 C37.9,1.1 37.7,1.1 37.6,1.2 C31.6,4.4 26.2,8.5 21.3,13.2 C20.7,13.8 20.1,14.3 19.6,14.9 C17.9,16.6 16.4,18.4 14.9,20.3 L14.9,52.8 C16.2,47.2 18.3,41.9 21,37 C21.8,35.6 22.6,34.2 23.5,32.9 C26.4,28.5 29.9,24.5 33.9,21.1 C33.9,21.1 33.9,21.1 33.9,21.1 L33.9,7.7 C34,4.8 35.7,2.3 38,1 Z" id="XMLID_9_" fill="#EB008B"></path>
                <path d="M48.9,7.7 C48.9,3.6 45.5,0.2 41.4,0.2 C40.4,0.2 39.5,0.4 38.6,0.8 C38.5,0.8 38.3,0.9 38,1 C35.6,2.3 34,4.8 34,7.6 L34,21 C38.5,17.2 43.5,14 48.9,11.6 L48.9,7.7 Z" id="XMLID_163_" fill="#CA187C"></path>
                <path d="M45.4,61.8 C45.3,61.8 45.3,61.9 45.2,61.9 C45.3,61.9 45.4,61.8 45.4,61.8 Z" id="XMLID_165_" fill="#CA187C"></path>
                <path d="M46.4,61 C46.3,61.1 46.2,61.2 46.1,61.2 C46.3,61.2 46.4,61.1 46.4,61 Z" id="XMLID_166_" fill="#CA187C"></path>
                <path d="M47.2,60.2 C47.1,60.3 47,60.4 47,60.5 C47.1,60.4 47.1,60.3 47.2,60.2 Z" id="XMLID_167_" fill="#CA187C"></path>
                <path d="M34,55.4 L34,54.6 L34,55.4 C34,59.5 37.3,62.9 41.4,62.9 C41.4,62.9 41.4,62.9 41.4,62.9 C37.4,62.9 34,59.6 34,55.4 Z" id="XMLID_168_" fill="#CA187C"></path>
                <path d="M42.6,62.9 C42.6,62.9 42.7,62.9 42.6,62.9 C42.6,62.9 42.6,62.9 42.6,62.9 C42.6,62.9 42.6,62.9 42.6,62.9 Z" id="XMLID_169_" fill="#CA187C"></path>
                <path d="M41.5,63 C41.6,63 41.6,63 41.7,63 C41.6,63 41.6,63 41.5,63 C41.5,63 41.5,63 41.5,63 Z" id="XMLID_170_" fill="#CA187C"></path>
                <path d="M47.9,59.3 C47.8,59.4 47.8,59.4 47.9,59.3 C47.8,59.4 47.8,59.4 47.9,59.3 C47.9,59.3 47.9,59.3 47.9,59.3 C47.9,59.3 47.9,59.3 47.9,59.3 Z" id="XMLID_171_" fill="#CA187C"></path>
                <path d="M71.3,1.5 C65.5,4.7 60.2,8.7 55.4,13.3 C54.8,13.9 54.2,14.4 53.7,15 C52,16.7 50.5,18.5 49,20.4 L49,52.9 C50.3,47.3 52.4,42 55.1,37.1 C55.9,35.7 56.7,34.3 57.6,33 C60.5,28.6 64,24.6 68,21.2 L68,7.8 C68,5.1 69.3,2.8 71.3,1.5 Z" id="XMLID_173_" fill="#EB008B"></path>
                <path d="M75.5,0.1 C74.5,0.1 73.6,0.3 72.7,0.7 C72.4,0.8 72.1,1 71.9,1.1 C71.8,1.2 71.7,1.2 71.6,1.3 C71.5,1.3 71.5,1.4 71.4,1.4 C69.4,2.8 68.1,5 68.1,7.6 L68.1,21 C72.6,17.2 77.6,14 83,11.6 L83,7.6 C83,3.6 79.6,0.2 75.5,0.1 Z" id="XMLID_174_" fill="#CA187C"></path>
                <path d="M48.9,20.3 C47.2,22.5 45.6,24.8 44.2,27.2 C43.7,28.1 43.1,28.9 42.6,29.8 C38.3,37.3 35.4,45.7 34,54.6 L34,55.4 C34,59.5 37.4,62.9 41.5,62.9 C41.5,62.9 41.5,62.9 41.5,62.9 C41.5,62.9 41.5,62.9 41.5,62.9 C41.5,62.9 41.5,62.9 41.5,62.9 C41.5,62.9 41.5,62.9 41.5,62.9 C41.6,62.9 41.6,62.9 41.7,62.9 C42,62.9 42.3,62.9 42.6,62.8 C42.6,62.8 42.7,62.8 42.7,62.8 C43.2,62.7 43.7,62.6 44.2,62.4 C44.2,62.4 44.2,62.4 44.3,62.4 C44.7,62.3 45,62.1 45.3,61.9 C45.4,61.9 45.4,61.8 45.5,61.8 C45.8,61.6 46,61.5 46.2,61.3 C46.3,61.2 46.4,61.1 46.5,61.1 C46.7,60.9 46.9,60.8 47,60.6 C47.1,60.5 47.2,60.4 47.2,60.3 C47.4,60 47.6,59.8 47.8,59.5 C47.8,59.5 47.8,59.4 47.9,59.4 C47.9,59.4 47.9,59.4 47.9,59.4 C48.1,57.2 48.5,55 49,52.9 C49,52.9 49,52.9 49,52.9 L48.9,20.3 C49,20.3 49,20.3 48.9,20.3 Z" id="XMLID_175_" fill="#CA187C"></path>
                <path d="M14.9,20.3 C13.2,22.5 11.6,24.8 10.2,27.2 C9.7,28.1 9.1,28.9 8.6,29.8 C4.4,37.4 1.4,45.7 0,54.6 L0,55.4 C0,59.5 3.4,62.9 7.5,62.9 C7.5,62.9 7.5,62.9 7.5,62.9 C7.5,62.9 7.5,62.9 7.5,62.9 C7.5,62.9 7.5,62.9 7.5,62.9 C7.5,62.9 7.5,62.9 7.5,62.9 C7.6,62.9 7.6,62.9 7.7,62.9 C8,62.9 8.3,62.9 8.6,62.8 C8.6,62.8 8.7,62.8 8.7,62.8 C9.2,62.7 9.7,62.6 10.2,62.4 C10.2,62.4 10.2,62.4 10.3,62.4 C10.7,62.3 11,62.1 11.3,61.9 C11.4,61.9 11.4,61.8 11.5,61.8 C11.8,61.6 12,61.5 12.2,61.3 C12.3,61.2 12.4,61.1 12.5,61.1 C12.7,60.9 12.9,60.8 13,60.6 C13.1,60.5 13.2,60.4 13.2,60.3 C13.4,60 13.6,59.8 13.8,59.5 C13.8,59.5 13.8,59.4 13.9,59.4 C13.9,59.4 13.9,59.4 13.9,59.4 C14.1,57.2 14.5,55 15,52.9 C15,52.9 15,52.9 15,52.9 L14.9,20.3 C14.9,20.3 14.9,20.3 14.9,20.3 Z" id="XMLID_2_" fill="#CA187C"></path>
                <path d="M99.3,62.8 C99.3,62.8 99.2,62.8 99.2,62.8 C99.3,62.8 99.3,62.8 99.3,62.8 Z" id="XMLID_176_" fill="#CA187C"></path>
                <path d="M100.8,62.3 C100.7,62.3 100.7,62.4 100.6,62.4 C100.6,62.3 100.7,62.3 100.8,62.3 Z" id="XMLID_178_" fill="#CA187C"></path>
                <path d="M97.6,63 C97.7,63 97.7,63 97.6,63 C97.7,63 97.7,63 97.6,63 Z" id="XMLID_179_" fill="#CA187C"></path>
                <path d="M97.8,63 C97.8,63 97.7,63 97.8,63 C97.7,63 97.7,63 97.8,63 Z" id="XMLID_180_" fill="#CA187C"></path>
                <path d="M118.1,26.1 C117.3,27.5 116.5,28.9 115.6,30.2 C112.7,34.6 109.2,38.6 105.2,42 L105.2,55.4 C105.2,58.4 103.4,61 100.8,62.2 C101.1,62.1 101.3,61.9 101.6,61.8 C107.6,58.6 113,54.5 117.9,49.8 C118.5,49.2 119.1,48.7 119.6,48.1 C121.3,46.4 122.8,44.6 124.3,42.7 L124.3,10.2 C123,15.9 120.9,21.2 118.1,26.1 Z" id="XMLID_182_" fill="#EB008B"></path>
                <path d="M90.2,55.4 C90.2,59.5 93.5,62.9 97.6,62.9 C97.6,62.9 97.6,62.9 97.6,62.9 C93.6,62.9 90.2,59.6 90.2,55.4 Z" id="XMLID_183_" fill="#CA187C"></path>
                <path d="M97.7,63 C98.2,63 98.7,62.9 99.2,62.8 C98.7,62.9 98.2,63 97.7,63 C97.7,63 97.7,63 97.7,63 Z" id="XMLID_186_" fill="#CA187C"></path>
                <path d="M100.5,62.4 C100.5,62.4 100.6,62.4 100.5,62.4 C100.2,62.5 99.8,62.7 99.3,62.8 C99.7,62.7 100.1,62.6 100.5,62.4 Z" id="XMLID_190_" fill="#CA187C"></path>
                <path d="M105.2,55.4 L105.2,42 C100.7,45.8 95.7,49 90.3,51.4 L90.3,55.4 C90.3,59.5 93.7,62.9 97.8,62.9 C98.3,62.9 98.8,62.8 99.3,62.7 C99.3,62.7 99.4,62.7 99.4,62.7 C99.8,62.6 100.2,62.5 100.6,62.3 C100.7,62.3 100.7,62.2 100.8,62.2 C103.4,61.1 105.2,58.5 105.2,55.4 Z" id="XMLID_192_" fill="#CA187C"></path>
            </g>
        </g>
    </g>
</svg>